<?xml version="1.0" encoding="UTF-8" standalone="no"?>
<svg
   viewBox="0 0 16 16"
   xml:space="preserve"
   version="1.1"
   id="svg35"
   sodipodi:docname="animalresearchunlockssettings.svg"
   width="16"
   height="16"
   inkscape:version="1.2.1 (9c6d41e410, 2022-07-14)"
   xmlns:inkscape="http://www.inkscape.org/namespaces/inkscape"
   xmlns:sodipodi="http://sodipodi.sourceforge.net/DTD/sodipodi-0.dtd"
   xmlns="http://www.w3.org/2000/svg"
   xmlns:svg="http://www.w3.org/2000/svg"><defs
   id="defs39" /><sodipodi:namedview
   id="namedview37"
   pagecolor="#000000"
   bordercolor="#000000"
   borderopacity="0.25"
   inkscape:showpageshadow="2"
   inkscape:pageopacity="0"
   inkscape:pagecheckerboard="0"
   inkscape:deskcolor="#d1d1d1"
   showgrid="true"
   inkscape:zoom="30.19346"
   inkscape:cx="9.8034476"
   inkscape:cy="12.287429"
   inkscape:window-width="1920"
   inkscape:window-height="1057"
   inkscape:window-x="-8"
   inkscape:window-y="-8"
   inkscape:window-maximized="1"
   inkscape:current-layer="g31"><inkscape:grid
     type="xygrid"
     id="grid9373" /></sodipodi:namedview>
    <g
   fill="#ffffff"
   id="g33">
        
        <g
   fill="#ffffff"
   id="g31">
            
        <path
   d="M 8.5124795,6.7280349 A 2.7344485,2.9566927 0 0 0 5.7842665,9.677985 V 10.94225 H 5.3945219 a 0.38974465,0.42142142 0 0 0 -0.3897447,0.421421 v 4.214214 a 0.38974465,0.42142142 0 0 0 0.3897447,0.421421 H 11.630437 A 0.38974465,0.42142142 0 0 0 12.02018,15.577885 V 11.363671 A 0.38974465,0.42142142 0 0 0 11.630437,10.94225 H 11.240692 V 9.677985 c 0,-1.6241583 -1.226137,-2.9499501 -2.7282125,-2.9499501 z m 0,0.8428429 c 1.0811516,0 1.9487235,0.9380842 1.9487235,2.1071072 V 10.94225 H 6.5637558 V 9.677985 c 0,-1.169023 0.8675721,-2.1071072 1.9487237,-2.1071072 z M 8.1227348,12.627935 h 0.7794893 v 1.685686 H 8.1227348 v -0.842842 z"
   fill="#ffffff"
   id="path207"
   style="stroke-width:0.810547" /><g
   id="g5152"
   transform="matrix(0.01797202,0,0,0.01797202,-2.3766092,0.85582359)"><path
     style="fill:#ffffff;stroke-width:0.570125"
     d="m 428.7806,94.468877 c -12.97878,-2.82518 -23.3176,-8.21004 -31.77258,-16.54841 -4.6323,-4.5684 -5.39599,-5.91949 -6.85776,-12.13247 -1.95517,-8.3101 -2.47978,-16.59252 -2.1201,-33.47139 0.68554,-32.170564 5.79152,-62.647937 12.56884,-75.022828 2.8245,-5.157333 4.18447,-5.660992 15.19129,-5.626066 15.54431,0.04933 27.18431,3.754272 40.76396,12.974942 6.00268,4.075856 17.37562,15.167712 22.17057,21.622618 9.91367,13.345673 17.53327,30.073694 20.8906,45.863074 1.49977,7.05334 2.12171,21.12412 1.17979,26.69172 -1.6209,9.58104 -5.19869,16.88518 -10.83451,22.11891 -4.86695,4.51971 -17.74135,9.98001 -30.55582,12.95935 -7.59048,1.76477 -23.75463,2.06592 -30.62428,0.57055 z"
     id="path1232" /><path
     style="fill:#ffffff;stroke:none;stroke-width:0.570125"
     d="m 306.3262,95.153877 c -8.58253,-0.97451 -21.97319,-4.99267 -31.11952,-9.33808 -6.69074,-3.17877 -11.26155,-7.7165 -14.39281,-14.28863 -3.0434,-6.38773 -4.09152,-10.84431 -4.48659,-19.077 -1.42459,-29.68613 15.9111,-65.726026 40.96095,-85.155448 15.44592,-11.980317 32.22636,-17.211287 50.38262,-15.705784 4.96322,0.411547 5.18392,0.491055 7.18172,2.58723 5.20463,5.460929 9.89452,23.578021 13.134,50.736819 1.7118,14.351103 1.92085,48.520113 0.34771,56.830093 -1.63338,8.62815 -2.77155,10.974 -7.70036,15.87094 -9.00699,8.94875 -20.54559,14.71962 -34.18802,17.09867 -4.46417,0.77848 -15.09589,1.01161 -20.1197,0.44119 z"
     id="path1234" /><path
     style="fill:#ffffff;stroke-width:0.570125"
     d="m 563.73783,212.04611 c -16.95863,-2.19808 -31.34228,-9.60983 -45.12544,-23.25266 -6.85411,-6.78433 -6.94201,-6.90454 -8.34849,-11.41752 -2.37571,-7.62297 -2.96988,-13.93187 -2.95319,-31.3569 0.0156,-16.2864 0.61334,-25.51585 2.60316,-40.19384 3.23401,-23.855783 8.41315,-41.005643 13.36285,-44.248813 1.92914,-1.26402 13.90489,-1.74847 20.27255,-0.82007 14.68687,2.14133 28.54211,9.43611 41.20371,21.69374 18.31898,17.734503 31.47101,43.034073 35.98275,69.217333 3.49716,20.2953 0.0495,37.99069 -9.21149,47.27893 -8.66171,8.68717 -32.15106,15.12636 -47.78641,13.0998 z"
     id="path1236" /><path
     style="fill:#ffffff;stroke-width:0.570125"
     d="m 293.49838,373.23906 c -12.048,-1.95396 -28.41068,-8.75095 -38.71998,-16.08411 -5.89986,-4.19667 -14.49958,-12.95252 -18.39336,-18.72728 -7.93264,-11.76473 -13.16838,-26.60548 -14.98166,-42.46565 -2.79021,-24.40518 5.74126,-51.17557 25.19492,-79.05761 11.26211,-16.14147 41.61259,-50.72699 55.54222,-63.29245 23.25065,-20.97365 46.54112,-34.60207 69.64072,-40.75027 4.53079,-1.20592 6.23037,-1.40283 9.52868,-1.10394 20.03256,1.8153 45.97254,15.58607 73.21134,38.86571 13.07505,11.1746 21.57924,20.05187 37.64379,39.29523 26.86471,32.18063 39.53602,57.94627 44.02006,89.50969 1.10498,7.77804 0.94095,27.10347 -0.29754,35.05504 -1.96001,12.58405 -6.81699,22.05118 -16.59737,32.35129 -12.23417,12.8843 -26.35929,21.5456 -41.23323,25.28356 -4.44493,1.11705 -5.90122,1.21254 -13.80602,0.90526 -10.05569,-0.39088 -14.81831,-0.98438 -39.90878,-4.97321 -9.87743,-1.57029 -21.29419,-3.37701 -25.37058,-4.01495 -9.75858,-1.52717 -21.58138,-2.00333 -27.71593,-1.11625 -2.62967,0.38025 -13.79662,2.33097 -24.81544,4.33491 -29.58201,5.37994 -45.54541,7.1846 -52.94184,5.98503 z"
     id="path1238" /><path
     style="fill:#ffffff;stroke-width:0.570125"
     d="m 176.68469,211.86865 c -8.95095,-1.12005 -18.71614,-4.03012 -26.25158,-7.8231 -12.86759,-6.47692 -19.42933,-22.9546 -17.49848,-43.9418 0.89749,-9.75519 2.47312,-17.11522 5.82246,-27.1976 10.57436,-31.83157 32.48599,-58.061503 56.77487,-67.963983 9.31672,-3.79839 12.45535,-4.3665 24.3425,-4.40611 l 10.75465,-0.0358 2.19243,2.47012 c 12.34421,13.90775 19.84938,95.553453 10.73762,116.810303 -2.45493,5.72713 -17.49096,18.86655 -27.73041,24.23258 -12.18226,6.38416 -27.05296,9.36842 -39.14406,7.85543 z"
     id="path1240" /></g></g>
    </g>
</svg>
