<?xml version="1.0" encoding="UTF-8" standalone="no"?>
<svg
   viewBox="0 0 16 16"
   xml:space="preserve"
   version="1.1"
   id="svg16"
   sodipodi:docname="append_blend.svg"
   width="16"
   height="16"
   inkscape:version="1.2.1 (9c6d41e410, 2022-07-14)"
   xmlns:inkscape="http://www.inkscape.org/namespaces/inkscape"
   xmlns:sodipodi="http://sodipodi.sourceforge.net/DTD/sodipodi-0.dtd"
   xmlns="http://www.w3.org/2000/svg"
   xmlns:svg="http://www.w3.org/2000/svg"><defs
   id="defs20" /><sodipodi:namedview
   id="namedview18"
   pagecolor="#323232"
   bordercolor="#000000"
   borderopacity="0.25"
   inkscape:showpageshadow="2"
   inkscape:pageopacity="0"
   inkscape:pagecheckerboard="0"
   inkscape:deskcolor="#d1d1d1"
   showgrid="false"
   inkscape:zoom="31.006632"
   inkscape:cx="10.610633"
   inkscape:cy="4.9344282"
   inkscape:window-width="1920"
   inkscape:window-height="1057"
   inkscape:window-x="-8"
   inkscape:window-y="-8"
   inkscape:window-maximized="1"
   inkscape:current-layer="svg16" />
    <g
   fill="#ffffff"
   id="g14"
   transform="matrix(0.99999138,0,0,1,-2.0204851,-1.0031948)">
        <path
   fill="#ffffff"
   d="m 35.744,52.004 c -0.894,0.018 -1.829,0.374 -2.598,1.142 l -5,5 c -0.837,0.838 -1.178,2.042 -1.119,3.227 0.06,1.185 0.516,2.377 1.37,3.23 0.852,0.853 2.037,1.315 3.22,1.377 1.183,0.063 2.39,-0.28 3.237,-1.126 l 6,-6 a 0.5006316,0.5006316 0 1 0 -0.708,-0.708 l -6,6 c -0.603,0.604 -1.522,0.887 -2.476,0.836 -0.954,-0.05 -1.919,-0.438 -2.566,-1.086 -0.647,-0.646 -1.03,-1.616 -1.079,-2.574 -0.047,-0.958 0.238,-1.878 0.829,-2.468 l 5,-5 c 1.184,-1.185 2.758,-1.005 3.554,-0.249 0.797,0.757 0.863,2.417 -0.262,3.541 l -4.5,4.5 c -0.592,0.593 -1.094,0.449 -1.417,0.125 -0.324,-0.323 -0.468,-0.825 0.125,-1.417 l 3.5,-3.5 a 0.5006316,0.5006316 0 1 0 -0.708,-0.708 l -3.5,3.5 c -0.907,0.908 -0.801,2.156 -0.125,2.833 0.677,0.676 1.925,0.782 2.833,-0.125 l 4.5,-4.5 c 1.483,-1.484 1.52,-3.763 0.244,-4.975 -0.606,-0.576 -1.46,-0.894 -2.354,-0.875 z"
   transform="translate(-24,-50)"
   id="path12" />
    </g>
</svg>
