<?xml version="1.0" encoding="UTF-8" standalone="no"?>
<svg
   width="16"
   height="16"
   viewBox="0 0 16 16"
   version="1.1"
   xml:space="preserve"
   style="clip-rule:evenodd;fill-rule:evenodd;stroke-linejoin:round;stroke-miterlimit:2"
   id="svg512"
   sodipodi:docname="assetpkg.svg"
   inkscape:version="1.2.1 (9c6d41e410, 2022-07-14)"
   xmlns:inkscape="http://www.inkscape.org/namespaces/inkscape"
   xmlns:sodipodi="http://sodipodi.sourceforge.net/DTD/sodipodi-0.dtd"
   xmlns="http://www.w3.org/2000/svg"
   xmlns:svg="http://www.w3.org/2000/svg"><defs
   id="defs516" /><sodipodi:namedview
   id="namedview514"
   pagecolor="#ffffff"
   bordercolor="#000000"
   borderopacity="0.25"
   inkscape:showpageshadow="2"
   inkscape:pageopacity="0.0"
   inkscape:pagecheckerboard="0"
   inkscape:deskcolor="#d1d1d1"
   showgrid="false"
   inkscape:zoom="43.85"
   inkscape:cx="9.9885975"
   inkscape:cy="6.3397948"
   inkscape:window-width="1920"
   inkscape:window-height="1057"
   inkscape:window-x="-8"
   inkscape:window-y="-8"
   inkscape:window-maximized="1"
   inkscape:current-layer="svg512" />
    <g
   transform="matrix(1.0004288,0,0,1,-818.34663,-429.005)"
   id="g510">
        <path
   d="m 823.99,430.005 v 2 h 5 v 3.708 l 1.854,-1.855 c 0.093,-0.094 0.146,-0.221 0.146,-0.353 0.011,-0.974 0,-3.042 0,-3.5 z m -3,3 v 4 h 7 v -4 z m 11.484,1.125 c -0.127,0.004 -0.248,0.056 -0.338,0.146 l -3.728,3.729 h -8.912 c -0.274,0 -0.5,0.226 -0.5,0.5 v 5 c 0,0.274 0.226,0.5 0.5,0.5 h 8.494 v -4.5 c -0.003,-0.274 0.218,-0.502 0.492,-0.506 0.003,0 0.005,0 0.008,0 0.274,0 0.5,0.226 0.5,0.5 0,0.002 0,0.004 0,0.006 v 4.332 l 3.853,-3.854 c 0.094,-0.094 0.147,-0.221 0.147,-0.353 v -5 c 0,-0.275 -0.226,-0.5 -0.5,-0.5 -0.005,0 -0.011,0 -0.016,0 z"
   style="fill:#ffffff;fill-rule:nonzero"
   id="path508" />
    </g>
</svg>
