<?xml version="1.0" encoding="UTF-8" standalone="no"?>
<!DOCTYPE svg PUBLIC "-//W3C//DTD SVG 1.1//EN" "http://www.w3.org/Graphics/SVG/1.1/DTD/svg11.dtd">
<svg width="100%" height="100%" viewBox="0 0 20 20" version="1.1" xmlns="http://www.w3.org/2000/svg" xmlns:xlink="http://www.w3.org/1999/xlink" xml:space="preserve" xmlns:serif="http://www.serif.com/" style="fill-rule:evenodd;clip-rule:evenodd;stroke-linejoin:round;stroke-miterlimit:2;">
    <g transform="matrix(1.28571,0,0,1.28571,-1051.99,-551.864)">
        <path d="M823.99,430.005L823.99,432.005L828.99,432.005L828.99,435.713L830.844,433.858C830.937,433.764 830.99,433.637 830.99,433.505C831.001,432.531 830.99,430.463 830.99,430.005L823.99,430.005ZM820.99,433.005L820.99,437.005L827.99,437.005L827.99,433.005L820.99,433.005ZM832.474,434.13C832.347,434.134 832.226,434.186 832.136,434.276L828.408,438.005L819.496,438.005C819.222,438.005 818.996,438.231 818.996,438.505L818.996,443.505C818.996,443.779 819.222,444.005 819.496,444.005L827.99,444.005L827.99,439.505C827.987,439.231 828.208,439.003 828.482,438.999C828.485,438.999 828.487,438.999 828.49,438.999C828.764,438.999 828.99,439.225 828.99,439.499C828.99,439.501 828.99,439.503 828.99,439.505L828.99,443.837L832.843,439.983C832.937,439.889 832.99,439.762 832.99,439.63L832.99,434.63C832.99,434.355 832.764,434.13 832.49,434.13C832.485,434.13 832.479,434.13 832.474,434.13Z" style="fill:white;fill-rule:nonzero;"/>
    </g>
</svg>
