<?xml version="1.0" encoding="UTF-8" standalone="no"?>
<svg
   viewBox="0 0 16 16"
   xml:space="preserve"
   version="1.1"
   id="svg155"
   sodipodi:docname="brush_data.svg"
   width="16"
   height="16"
   inkscape:version="1.2.1 (9c6d41e410, 2022-07-14)"
   xmlns:inkscape="http://www.inkscape.org/namespaces/inkscape"
   xmlns:sodipodi="http://sodipodi.sourceforge.net/DTD/sodipodi-0.dtd"
   xmlns="http://www.w3.org/2000/svg"
   xmlns:svg="http://www.w3.org/2000/svg"><defs
   id="defs159" /><sodipodi:namedview
   id="namedview157"
   pagecolor="#000000"
   bordercolor="#000000"
   borderopacity="0.25"
   inkscape:showpageshadow="2"
   inkscape:pageopacity="0"
   inkscape:pagecheckerboard="0"
   inkscape:deskcolor="#d1d1d1"
   showgrid="false"
   inkscape:zoom="42.7"
   inkscape:cx="18.360656"
   inkscape:cy="6.9320843"
   inkscape:window-width="1920"
   inkscape:window-height="1057"
   inkscape:window-x="-8"
   inkscape:window-y="-8"
   inkscape:window-maximized="1"
   inkscape:current-layer="svg155" />
    <g
   fill="#ffffff"
   id="g153"
   transform="translate(-2,-1.9998904)">
        <path
   fill="#ffffff"
   d="m 14,472 c -0.486,0 -0.979,0.16 -1.363,0.502 C 12.252,472.844 12,473.375 12,474 v 4 H 8.5 A 0.5,0.5 0 0 0 8,478.5 v 4 c 0,0.333 -0.182,0.725 -0.479,1.021 C 7.225,483.818 6.833,484 6.5,484 A 0.5,0.5 0 0 0 6,484.5 v 2 a 0.5,0.5 0 0 0 0.5,0.5 h 3 a 0.5,0.5 0 0 0 0.354,-0.146 L 11,485.707 v 0.793 a 0.5,0.5 0 0 0 0.5,0.5 h 5 c 1.778,0 3.5,-1.464 3.5,-3.5 v -5 A 0.5,0.5 0 0 0 19.5,478 H 16 v -4 c 0,-0.625 -0.252,-1.156 -0.637,-1.498 A 2.044,2.044 0 0 0 14,472 Z m 0,1 c 0.264,0 0.521,0.09 0.7,0.248 0.177,0.158 0.3,0.377 0.3,0.752 v 4 h -0.5 c -0.676,-0.01 -0.676,1.01 0,1 H 19 v 1 H 9 v -1 h 3.5 A 0.5,0.5 0 0 0 13,478.5 V 474 c 0,-0.375 0.123,-0.594 0.3,-0.752 A 1.07,1.07 0 0 1 14,473 Z m -5,8 h 10 v 2.5 c 0,1.464 -1.278,2.5 -2.5,2.5 H 16 v -1.5 a 0.5,0.5 0 1 0 -1,0 v 1.5 h -3 v -1.5 a 0.5,0.5 0 0 0 -0.854,-0.354 L 9.293,486 H 7 v -1.223 c 0.444,-0.12 0.906,-0.226 1.229,-0.548 C 8.682,483.775 9,483.167 9,482.5 Z"
   transform="translate(-3,-469.5)"
   id="path151" />
    </g>
</svg>
