<?xml version="1.0" encoding="UTF-8" standalone="no"?>
<!DOCTYPE svg PUBLIC "-//W3C//DTD SVG 1.1//EN" "http://www.w3.org/Graphics/SVG/1.1/DTD/svg11.dtd">
<svg width="100%" height="100%" viewBox="0 0 20 20" version="1.1" xmlns="http://www.w3.org/2000/svg" xmlns:xlink="http://www.w3.org/1999/xlink" xml:space="preserve" xmlns:serif="http://www.serif.com/" style="fill-rule:evenodd;clip-rule:evenodd;stroke-linejoin:round;stroke-miterlimit:2;">
    <g transform="matrix(1.25,0,0,1.25,-2.5,-2.5)">
        <path d="M12.5,2C10.36,2 8.693,3.472 8.17,5.244C7.52,4.496 6.66,4 5.5,4C3.582,4.004 2.004,5.582 2,7.5C2,9.427 3.573,11 5.5,11L12.5,11C14.98,11 17,8.98 17,6.5C17,4.02 14.98,2 12.5,2ZM12.5,5C13.323,5 14,5.677 14,6.5C14,7.322 13.323,8 12.5,8C11.677,8 11,7.322 11,6.5C11,5.677 11.677,5 12.5,5ZM5.5,6C6.323,6 7,6.677 7,7.5C7,8.322 6.323,9 5.5,9C4.677,9 4,8.322 4,7.5C4,6.677 4.677,6 5.5,6ZM12.5,6C12.218,6 12,6.218 12,6.5C12,6.782 12.218,7 12.5,7C12.782,7 13,6.782 13,6.5C13,6.218 12.782,6 12.5,6ZM5.5,7C5.218,7 5,7.218 5,7.5C5,7.782 5.218,8 5.5,8C5.782,8 6,7.782 6,7.5C6,7.218 5.782,7 5.5,7ZM6.5,12C6.226,12 6,12.226 6,12.5L6,14L5,14L5,13.5C5,13.226 4.774,13 4.5,13C4.226,13 4,13.226 4,13.5L4,15.5C4.009,16.157 4.99,16.157 5,15.5L5,15L6,15L6,16.5C6,16.632 6.053,16.76 6.146,16.853L7.146,17.853C7.24,17.947 7.367,18 7.5,18L12.5,18C12.774,18 13,17.774 13,17.5L13,12.5C13,12.226 12.774,12 12.5,12L6.5,12ZM17.484,13C17.397,13.001 17.312,13.027 17.238,13.074L13.988,15.074C13.841,15.165 13.751,15.326 13.751,15.5C13.751,15.673 13.841,15.834 13.988,15.925L17.238,17.925C17.317,17.973 17.407,17.999 17.5,17.999C17.774,17.999 18,17.774 18,17.5L18,13.5C18,13.225 17.774,13 17.5,13C17.495,13 17.489,13 17.484,13Z" style="fill:white;fill-rule:nonzero;"/>
    </g>
</svg>
