<?xml version="1.0" encoding="UTF-8" standalone="no"?>
<!DOCTYPE svg PUBLIC "-//W3C//DTD SVG 1.1//EN" "http://www.w3.org/Graphics/SVG/1.1/DTD/svg11.dtd">
<svg width="100%" height="100%" viewBox="0 0 16 16" version="1.1" xmlns="http://www.w3.org/2000/svg" xmlns:xlink="http://www.w3.org/1999/xlink" xml:space="preserve" xmlns:serif="http://www.serif.com/" style="fill-rule:evenodd;clip-rule:evenodd;stroke-linejoin:round;stroke-miterlimit:2;">
    <g transform="matrix(1,0,0,1,-2,-2)">
        <g transform="matrix(1,0,0,1,2,2)">
            <path d="M7.903,13.878L6.854,14.927C6.76,15.021 6.633,15.074 6.5,15.074C6.226,15.074 6,14.848 6,14.574L6,7.78L1.146,2.927C1.052,2.833 1,2.706 1,2.573L1,1.573C1,1.299 1.226,1.073 1.5,1.073L14.5,1.073C14.774,1.073 15,1.299 15,1.573L15,2.573C15,2.706 14.948,2.833 14.854,2.927L10.942,6.838L10.235,6.131L14,2.366L14,2.073L2,2.073L2,2.366L6.854,7.219C6.948,7.313 7,7.44 7,7.573L7,13.366L7.171,13.195C7.236,13.323 7.321,13.443 7.425,13.55C7.429,13.554 7.433,13.558 7.437,13.562C7.574,13.7 7.733,13.805 7.903,13.878ZM9.373,9.508L9,9.881L9,9.135L9.373,9.508Z" style="fill:white;fill-rule:nonzero;"/>
        </g>
        <g transform="matrix(1,0,0,1,2,2)">
            <path d="M8.144,12.855C7.954,12.659 7.954,12.336 8.149,12.146L10.788,9.508L8.149,6.87C7.956,6.677 7.956,6.358 8.149,6.165C8.343,5.971 8.661,5.971 8.855,6.165C8.855,6.165 11.493,8.803 11.493,8.803L14.131,6.165C14.137,6.158 14.143,6.152 14.15,6.145C14.343,5.952 14.661,5.952 14.855,6.145C15.048,6.339 15.048,6.657 14.855,6.85C14.848,6.857 14.842,6.863 14.835,6.869L12.197,9.507L14.835,12.145C15.029,12.338 15.029,12.657 14.835,12.85C14.642,13.044 14.323,13.044 14.13,12.85C14.13,12.85 11.492,10.212 11.492,10.212L8.849,12.855C8.655,13.048 8.337,13.048 8.144,12.855Z" style="fill:white;fill-rule:nonzero;"/>
        </g>
    </g>
</svg>
