<?xml version="1.0" encoding="UTF-8" standalone="no"?><!DOCTYPE svg PUBLIC "-//W3C//DTD SVG 1.1//EN" "http://www.w3.org/Graphics/SVG/1.1/DTD/svg11.dtd"><svg width="100%" height="100%" viewBox="0 0 96 96" version="1.1" xmlns="http://www.w3.org/2000/svg" xmlns:xlink="http://www.w3.org/1999/xlink" xml:space="preserve" xmlns:serif="http://www.serif.com/" style="fill-rule:evenodd;clip-rule:evenodd;stroke-linecap:round;stroke-linejoin:bevel;stroke-miterlimit:2;"><g id="Layer3"><g><path d="M64,56l8,-28l4,0l-3.375,8l3.375,6l-12,14Zm4,-8l4.625,-6l-1.609,-2l-3.016,8Z" style="fill:none;fill-rule:nonzero;stroke:url(#_Linear1);stroke-width:1.41px;"/><path d="M64,56l8,-28l4,0l-3.375,8l3.375,6l-12,14Zm4,-8l4.625,-6l-1.609,-2l-3.016,8Z" style="fill:#fff;fill-rule:nonzero;"/><path d="M48.005,56l-8.005,-28l-4,0l3.375,8l-3.375,6l12.005,14Zm-4.005,-8l-4.625,-6l1.461,-2l3.164,8Z" style="fill:none;fill-rule:nonzero;stroke:url(#_Linear2);stroke-width:1.41px;"/><path d="M48.005,56l-8.005,-28l-4,0l3.375,8l-3.375,6l12.005,14Zm-4.005,-8l-4.625,-6l1.461,-2l3.164,8Z" style="fill:#fff;fill-rule:nonzero;"/><path d="M16.444,84c1.02,-2.794 20.277,-6.413 20.277,-6.413l-10.721,-23.587l-6.006,-10l0.006,-8l12.209,-12.086l47.791,-0l12,12.086l0,8l-8,12l-8,24l-8,6l10,-24l-6,6.073l-12,-0.073l0.477,4l-0,8l-0.477,-0l-4,-8l-4,8l-0.477,-0l0,-8l0.477,-3.927l-14,-0.073l6,16l-27.556,-0Zm59.556,-56l-40,-0l-8.021,7.964l0.021,8.036l16,20l8,-0c0,-0 1.141,-4 4,-4c2.859,-0 4,4 4,4c0,-0 7.935,0.009 8,-0c0.055,-0 16,-20 16,-20l0,-8l-8,-8Z" style="fill:#fff;"/></g></g><g id="Layer1"><path d="M48.005,0c26.489,0 47.995,21.508 47.995,48c0,26.492 -21.506,48 -47.995,48c-26.489,0 -47.994,-21.508 -47.994,-48c-0,-26.492 21.505,-48 47.994,-48Zm34.092,22.075c-10.226,-9.166 -23.224,-8.905 -34.097,-5.104c-6.164,2.154 -12.134,5.361 -16.864,9.917c-2.47,2.379 -4.55,5.01 -6.315,7.952c-7.887,13.136 -10.854,32.492 0.206,44.822c3.357,3.743 7.638,5.957 12.409,7.415c11.856,3.625 24.621,1.93 34.925,-5.151c9.748,-6.697 15.7,-16.879 17.639,-26.792c2.259,-11.548 -0.822,-26.713 -7.903,-33.059Zm-17.769,-13.814c-12.852,-4.73 -27.644,-3.225 -38.882,4.77c-5.042,3.586 -9.259,8.385 -12.317,13.755c-2.043,3.588 -3.549,7.477 -4.447,11.508c-0.883,3.96 -1.168,8.052 -0.839,12.096c0.335,4.115 1.287,8.127 2.824,11.959c0.06,-1.244 0.121,-2.49 0.262,-3.728c0.349,-3.063 1.047,-6.579 1.902,-9.497c2.896,-9.883 8.058,-18.962 15.427,-26.185c6.572,-6.442 14.942,-10.662 23.8,-12.972c2.711,-0.707 5.969,-1.262 8.796,-1.525c1.154,-0.107 2.315,-0.144 3.474,-0.181Z" style="fill:#fff;"/></g><defs><linearGradient id="_Linear1" x1="0" y1="0" x2="1" y2="0" gradientUnits="userSpaceOnUse" gradientTransform="matrix(-0.0463472,20.7454,55.9722,0.125047,36.0463,31.2546)"><stop offset="0" style="stop-color:#fff;stop-opacity:1"/><stop offset="0.58" style="stop-color:#fff;stop-opacity:0.66"/><stop offset="1" style="stop-color:#fff;stop-opacity:0.5"/></linearGradient><linearGradient id="_Linear2" x1="0" y1="0" x2="1" y2="0" gradientUnits="userSpaceOnUse" gradientTransform="matrix(-0.0463472,20.7454,55.9722,0.125047,36.0463,31.2546)"><stop offset="0" style="stop-color:#fff;stop-opacity:1"/><stop offset="0.58" style="stop-color:#fff;stop-opacity:0.66"/><stop offset="1" style="stop-color:#fff;stop-opacity:0.5"/></linearGradient></defs></svg>