<?xml version="1.0" encoding="UTF-8" standalone="no"?>
<!DOCTYPE svg PUBLIC "-//W3C//DTD SVG 1.1//EN" "http://www.w3.org/Graphics/SVG/1.1/DTD/svg11.dtd">
<svg width="100%" height="100%" viewBox="0 0 16 16" version="1.1" xmlns="http://www.w3.org/2000/svg" xmlns:xlink="http://www.w3.org/1999/xlink" xml:space="preserve" xmlns:serif="http://www.serif.com/" style="fill-rule:evenodd;clip-rule:evenodd;stroke-linejoin:round;stroke-miterlimit:2;">
    <g transform="matrix(1.02857,0,0,1.02857,-2.28571,-2.28571)">
        <path d="M15.502,4.498C12.468,1.464 7.532,1.464 4.498,4.498C1.464,7.532 1.464,12.468 4.498,15.502C7.532,18.536 12.468,18.536 15.502,15.502C18.536,12.468 18.536,7.532 15.502,4.498ZM14.423,12.528C14.421,12.533 14.426,12.522 14.423,12.527C14.253,12.89 12.909,14.242 12.546,14.413C12.366,14.498 12.228,14.505 12.164,14.434L10,12.271L7.907,14.366C7.843,14.436 7.706,14.428 7.527,14.343C7.164,14.172 5.829,12.836 5.658,12.473C5.573,12.294 5.565,12.157 5.635,12.093L7.727,9.998L5.565,7.838C5.495,7.774 5.503,7.637 5.588,7.458C5.759,7.095 7.095,5.759 7.457,5.588C7.636,5.504 7.774,5.496 7.837,5.566L10,7.727L12.164,5.634C12.228,5.565 12.364,5.574 12.543,5.659C12.905,5.831 14.24,7.166 14.412,7.528C14.497,7.706 14.505,7.843 14.437,7.907L12.273,9.999L14.437,12.162C14.506,12.223 14.501,12.355 14.423,12.528Z" style="fill:rgb(255,46,103);fill-rule:nonzero;"/>
        <path d="M15.502,4.498C12.468,1.464 7.532,1.464 4.498,4.498C1.464,7.532 1.464,12.468 4.498,15.502C7.532,18.536 12.468,18.536 15.502,15.502C18.536,12.468 18.536,7.532 15.502,4.498ZM15.382,4.618C18.35,7.586 18.35,12.414 15.382,15.382C12.414,18.35 7.586,18.35 4.618,15.382C1.65,12.414 1.65,7.586 4.618,4.618C7.586,1.65 12.414,1.65 15.382,4.618L15.382,4.618ZM13.777,13.56C13.744,13.594 13.711,13.628 13.677,13.662C13.257,14.084 12.808,14.477 12.618,14.566C12.477,14.632 12.355,14.657 12.262,14.651C12.168,14.644 12.094,14.607 12.042,14.551C12.042,14.551 10,12.51 10,12.51C10,12.51 8.029,14.483 8.032,14.481C7.979,14.538 7.905,14.575 7.809,14.581C7.717,14.587 7.595,14.562 7.455,14.496C7.266,14.407 6.819,14.018 6.401,13.6C5.983,13.182 5.594,12.735 5.504,12.546C5.438,12.406 5.413,12.284 5.419,12.192C5.425,12.097 5.461,12.024 5.517,11.972C5.517,11.972 7.488,9.998 7.488,9.998C7.488,9.998 5.447,7.96 5.45,7.962C5.393,7.91 5.356,7.836 5.349,7.739C5.343,7.647 5.368,7.526 5.434,7.385C5.524,7.196 5.913,6.749 6.331,6.331C6.749,5.913 7.196,5.524 7.385,5.435C7.525,5.369 7.647,5.344 7.739,5.35C7.834,5.356 7.907,5.392 7.959,5.448C7.959,5.448 10.002,7.489 10.002,7.489C10.002,7.489 12.044,5.515 12.043,5.516C12.095,5.461 12.169,5.425 12.264,5.42C12.355,5.414 12.476,5.44 12.615,5.506C12.804,5.595 13.25,5.984 13.668,6.402C14.086,6.82 14.475,7.267 14.565,7.456L14.565,7.456C14.631,7.595 14.657,7.716 14.651,7.807C14.645,7.904 14.609,7.978 14.554,8.028C14.554,8.028 12.514,10.001 12.514,10.001C12.514,10.001 14.554,12.039 14.553,12.038C14.609,12.089 14.645,12.161 14.653,12.252C14.661,12.342 14.639,12.46 14.578,12.596L14.577,12.598C13.298,15.378 11.899,17.82 13.777,13.56ZM14.423,12.527C14.501,12.355 14.506,12.223 14.437,12.162L12.273,9.999L14.437,7.907C14.505,7.843 14.497,7.706 14.412,7.528C14.24,7.166 12.905,5.831 12.543,5.659C12.364,5.574 12.228,5.565 12.164,5.634L10,7.727L7.837,5.566C7.774,5.496 7.636,5.504 7.457,5.588C7.095,5.759 5.759,7.095 5.588,7.458C5.503,7.637 5.495,7.774 5.565,7.838L7.727,9.998L5.635,12.093C5.565,12.157 5.573,12.294 5.658,12.473C5.829,12.836 7.164,14.172 7.527,14.343C7.706,14.428 7.843,14.436 7.907,14.366L10,12.271L12.164,14.434C12.228,14.505 12.366,14.498 12.546,14.413C12.886,14.253 14.085,13.058 14.377,12.608L14.378,12.61C14.388,12.613 14.398,12.615 14.407,12.616C14.405,12.602 14.402,12.587 14.399,12.572L14.404,12.564C14.407,12.558 14.411,12.551 14.414,12.545L14.423,12.527ZM14.423,12.527L14.423,12.528L14.423,12.527Z" style="fill:rgb(235,0,64);"/>
    </g>
</svg>
