<?xml version="1.0" encoding="UTF-8" standalone="no"?>
<!DOCTYPE svg PUBLIC "-//W3C//DTD SVG 1.1//EN" "http://www.w3.org/Graphics/SVG/1.1/DTD/svg11.dtd">
<svg width="100%" height="100%" viewBox="0 0 20 20" version="1.1" xmlns="http://www.w3.org/2000/svg" xmlns:xlink="http://www.w3.org/1999/xlink" xml:space="preserve" xmlns:serif="http://www.serif.com/" style="fill-rule:evenodd;clip-rule:evenodd;stroke-linejoin:round;stroke-miterlimit:2;">
    <g transform="matrix(1.42939,0,0,1.42939,-789.022,-886.941)">
        <path d="M552.5,621C552.226,621 552,621.226 552,621.5C552,621.774 552.226,622 552.5,622L554.492,622C554.766,622 554.992,621.774 554.992,621.5C554.992,621.226 554.766,621 554.492,621L552.5,621ZM556.523,621C556.249,621 556.023,621.226 556.023,621.5C556.023,621.774 556.249,622 556.523,622L558.439,622C558.713,622 558.939,621.774 558.939,621.5C558.939,621.226 558.713,621 558.439,621L556.523,621ZM560.494,621C560.22,621 559.994,621.226 559.994,621.5C559.994,621.774 560.22,622 560.494,622L562.492,622C562.766,622 562.992,621.774 562.992,621.5C562.992,621.226 562.766,621 562.492,621L560.494,621ZM564.492,621C564.218,621 563.992,621.226 563.992,621.5C563.992,621.774 564.218,622 564.492,622L565.492,622C565.766,622 565.992,621.774 565.992,621.5C565.992,621.226 565.766,621 565.492,621L564.492,621ZM552.5,624C552.226,624 552,624.226 552,624.5C552,624.774 552.226,625 552.5,625L553.5,625C553.774,625 554,624.774 554,624.5C554,624.226 553.774,624 553.5,624L552.5,624ZM555.5,624C555.226,624 555,624.226 555,624.5C555,624.774 555.226,625 555.5,625L557.498,625C557.772,625 557.998,624.774 557.998,624.5C557.998,624.226 557.772,624 557.498,624L555.5,624ZM559.553,624C559.279,624 559.053,624.226 559.053,624.5C559.053,624.774 559.279,625 559.553,625L561.471,625C561.745,625 561.971,624.774 561.971,624.5C561.971,624.226 561.745,624 561.471,624L559.553,624ZM563.5,624C563.226,624 563,624.226 563,624.5C563,624.774 563.226,625 563.5,625L565.492,625C565.766,625 565.992,624.774 565.992,624.5C565.992,624.226 565.766,624 565.492,624L563.5,624ZM552.5,627C552.226,627 552,627.226 552,627.5C552,627.774 552.226,628 552.5,628L554.492,628C554.766,628 554.992,627.774 554.992,627.5C554.992,627.226 554.766,627 554.492,627L552.5,627ZM556.523,627C556.249,627 556.023,627.226 556.023,627.5C556.023,627.774 556.249,628 556.523,628L558.439,628C558.713,628 558.939,627.774 558.939,627.5C558.939,627.226 558.713,627 558.439,627L556.523,627ZM560.494,627C560.22,627 559.994,627.226 559.994,627.5C559.994,627.774 560.22,628 560.494,628L562.492,628C562.766,628 562.992,627.774 562.992,627.5C562.992,627.226 562.766,627 562.492,627L560.494,627ZM564.492,627C564.218,627 563.992,627.226 563.992,627.5C563.992,627.774 564.218,628 564.492,628L565.492,628C565.766,628 565.992,627.774 565.992,627.5C565.992,627.226 565.766,627 565.492,627L564.492,627ZM552.5,630C552.226,630 552,630.226 552,630.5C552,630.774 552.226,631 552.5,631L553.5,631C553.774,631 554,630.774 554,630.5C554,630.226 553.774,630 553.5,630L552.5,630ZM555.5,630C555.226,630 555,630.226 555,630.5C555,630.774 555.226,631 555.5,631L557.498,631C557.772,631 557.998,630.774 557.998,630.5C557.998,630.226 557.772,630 557.498,630L555.5,630ZM559.553,630C559.279,630 559.053,630.226 559.053,630.5C559.053,630.774 559.279,631 559.553,631L561.471,631C561.745,631 561.971,630.774 561.971,630.5C561.971,630.226 561.745,630 561.471,630L559.553,630ZM563.5,630C563.226,630 563,630.226 563,630.5C563,630.774 563.226,631 563.5,631L565.492,631C565.766,631 565.992,630.774 565.992,630.5C565.992,630.226 565.766,630 565.492,630L563.5,630ZM552.5,633C552.226,633 552,633.226 552,633.5C552,633.774 552.226,634 552.5,634L554.492,634C554.766,634 554.992,633.774 554.992,633.5C554.992,633.226 554.766,633 554.492,633L552.5,633ZM556.523,633C556.249,633 556.023,633.226 556.023,633.5C556.023,633.774 556.249,634 556.523,634L558.439,634C558.713,634 558.939,633.774 558.939,633.5C558.939,633.226 558.713,633 558.439,633L556.523,633ZM560.494,633C560.22,633 559.994,633.226 559.994,633.5C559.994,633.774 560.22,634 560.494,634L562.492,634C562.766,634 562.992,633.774 562.992,633.5C562.992,633.226 562.766,633 562.492,633L560.494,633ZM564.492,633C564.218,633 563.992,633.226 563.992,633.5C563.992,633.774 564.218,634 564.492,634L565.492,634C565.766,634 565.992,633.774 565.992,633.5C565.992,633.226 565.766,633 565.492,633L564.492,633Z" style="fill:white;fill-rule:nonzero;"/>
    </g>
</svg>
