<?xml version="1.0" encoding="UTF-8" standalone="no"?>
<!DOCTYPE svg PUBLIC "-//W3C//DTD SVG 1.1//EN" "http://www.w3.org/Graphics/SVG/1.1/DTD/svg11.dtd">
<svg width="100%" height="100%" viewBox="0 0 16 16" version="1.1" xmlns="http://www.w3.org/2000/svg" xmlns:xlink="http://www.w3.org/1999/xlink" xml:space="preserve" xmlns:serif="http://www.serif.com/" style="fill-rule:evenodd;clip-rule:evenodd;stroke-linejoin:round;stroke-miterlimit:2;">
    <g transform="matrix(1,0,0,1,-2,-2)">
        <g transform="matrix(1,0,0,1,-359.735,-532.735)">
            <path d="M363.5,536C363.226,536 363,536.226 363,536.5L363,549.5C363,549.774 363.226,550 363.5,550L376.5,550C376.774,550 377,549.774 377,549.5L377,536.5C377,536.226 376.774,536 376.5,536L363.5,536ZM364,537L376,537L376,549L364,549L364,537ZM366,539L366,540L367,540L367,539L366,539ZM367,540L367,541L368,541L368,540L367,540ZM368,541L368,542L369,542L369,541L368,541ZM368,542L367,542L367,543L368,543L368,542ZM367,543L366,543L366,544L367,544L367,543ZM369,543L369,544L372,544L372,543L369,543Z" style="fill:rgb(47,47,47);fill-opacity:0.44;fill-rule:nonzero;"/>
        </g>
        <g transform="matrix(1,0,0,1,-360,-533)">
            <path d="M363.5,536C363.226,536 363,536.226 363,536.5L363,549.5C363,549.774 363.226,550 363.5,550L376.5,550C376.774,550 377,549.774 377,549.5L377,536.5C377,536.226 376.774,536 376.5,536L363.5,536ZM364,537L376,537L376,549L364,549L364,537ZM366,539L366,540L367,540L367,539L366,539ZM367,540L367,541L368,541L368,540L367,540ZM368,541L368,542L369,542L369,541L368,541ZM368,542L367,542L367,543L368,543L368,542ZM367,543L366,543L366,544L367,544L367,543ZM369,543L369,544L372,544L372,543L369,543Z" style="fill:white;fill-opacity:0.42;fill-rule:nonzero;"/>
        </g>
    </g>
</svg>
