<?xml version="1.0" encoding="UTF-8" standalone="no"?>
<!DOCTYPE svg PUBLIC "-//W3C//DTD SVG 1.1//EN" "http://www.w3.org/Graphics/SVG/1.1/DTD/svg11.dtd">
<svg width="100%" height="100%" viewBox="0 0 20 20" version="1.1" xmlns="http://www.w3.org/2000/svg" xmlns:xlink="http://www.w3.org/1999/xlink" xml:space="preserve" xmlns:serif="http://www.serif.com/" style="fill-rule:evenodd;clip-rule:evenodd;stroke-linejoin:round;stroke-miterlimit:2;">
    <g transform="matrix(1.21429,0,0,1.21429,-3.64286,-3.64286)">
        <path d="M3.5,3C3.226,3 3,3.226 3,3.5L3,6.5C3,6.774 3.226,7 3.5,7L4.45,7L8,13.627L8,16.5C8,16.774 8.226,17 8.5,17L11.5,17C11.774,17 12,16.774 12,16.5L12,13.627L15.55,7L16.5,7C16.774,7 17,6.774 17,6.5L17,3.5C17,3.226 16.774,3 16.5,3L13.5,3C13.226,3 13,3.226 13,3.5L13,4L7,4L7,3.5C7,3.226 6.774,3 6.5,3L3.5,3ZM4,4L6,4L6,6L4,6L4,4ZM14,4L16,4L16,6L14,6L14,4ZM7,5L13,5L13,6.5C13,6.774 13.226,7 13.5,7L14.414,7L11.2,13L8.801,13L5.586,7L6.5,7C6.774,7 7,6.774 7,6.5L7,5ZM9,14L11,14L11,16L9,16L9,14Z" style="fill:rgb(245,245,245);fill-rule:nonzero;"/>
    </g>
    <g transform="matrix(1,0,0,1,-0.414092,-0.389734)">
        <path d="M13.421,11.157L9.655,7.391L7.391,9.655L11.157,13.421C11.157,13.421 7.391,17.188 7.391,17.188L9.655,19.452L13.421,15.685C13.421,15.685 17.188,19.452 17.188,19.452L19.452,17.188L15.685,13.421C15.685,13.421 19.452,9.655 19.452,9.655L17.188,7.391L13.421,11.157Z" style="fill:rgb(255,85,85);"/>
    </g>
    <g transform="matrix(1,0,0,1,-0.414092,-0.389734)">
        <path d="M10.356,13.421L6.59,17.188L9.655,20.253L13.421,16.486L17.188,20.253L20.253,17.188L16.486,13.421L20.253,9.655L17.188,6.59L13.421,10.356L9.655,6.59L6.59,9.655L10.356,13.421ZM13.421,15.685L17.188,19.452L19.452,17.188L15.685,13.421C15.685,13.421 19.452,9.655 19.452,9.655L17.188,7.391L13.421,11.157L9.655,7.391L7.391,9.655L11.157,13.421C11.157,13.421 7.391,17.188 7.391,17.188L9.655,19.452L13.421,15.685L13.421,15.685Z"/>
    </g>
</svg>
