<?xml version="1.0" encoding="UTF-8" standalone="no"?>
<svg
   viewBox="0 0 16 16"
   xml:space="preserve"
   version="1.1"
   id="svg12"
   sodipodi:docname="dump_debug.svg"
   width="16"
   height="16"
   inkscape:version="1.2.1 (9c6d41e410, 2022-07-14)"
   xmlns:inkscape="http://www.inkscape.org/namespaces/inkscape"
   xmlns:sodipodi="http://sodipodi.sourceforge.net/DTD/sodipodi-0.dtd"
   xmlns="http://www.w3.org/2000/svg"
   xmlns:svg="http://www.w3.org/2000/svg"><defs
   id="defs16"><rect
     x="-0.045610034"
     y="-0.068415051"
     width="16.054732"
     height="16.077537"
     id="rect533" /><rect
     x="1.0034208"
     y="0.9350057"
     width="13.979475"
     height="14.230331"
     id="rect477" /><rect
     x="-0.045610033"
     y="-0.068415053"
     width="14.800455"
     height="14.572407"
     id="rect533-2" /></defs><sodipodi:namedview
   id="namedview14"
   pagecolor="#6e6e6e"
   bordercolor="#000000"
   borderopacity="0.25"
   inkscape:showpageshadow="2"
   inkscape:pageopacity="0"
   inkscape:pagecheckerboard="0"
   inkscape:deskcolor="#d1d1d1"
   showgrid="false"
   inkscape:zoom="43.85"
   inkscape:cx="13.751425"
   inkscape:cy="6.4538198"
   inkscape:window-width="1920"
   inkscape:window-height="1057"
   inkscape:window-x="-8"
   inkscape:window-y="-8"
   inkscape:window-maximized="1"
   inkscape:current-layer="text531-5" />
    
<g
   aria-label="F3 00
F7 A1
10 CC"
   transform="scale(0.96674926,1.0343944)"
   id="text531-5"
   style="font-size:7.49907px;line-height:0.7;-inkscape-font-specification:'sans-serif, Normal';white-space:pre;display:inline;fill:#ffffff;stroke-width:1.12486"><path
     d="M 2.9634758,1.7963227 H 0.79819029 V 3.547832 H 2.8503347 V 4.1633387 H 0.79819029 V 6.567533 H 0.08813258 V 1.1684231 H 2.9634758 Z"
     style="font-size:5.99925px;font-family:Consolas;-inkscape-font-specification:'Consolas, Normal';stroke-width:1.54158"
     id="path652" /><path
     d="m 6.8566599,4.9275587 q 0,0.3552588 -0.1365497,0.6692085 -0.1365494,0.3098189 -0.4096486,0.5452812 -0.273099,0.2313315 -0.686649,0.3676518 -0.4135501,0.1321889 -0.9636497,0.1321889 -0.3043104,0 -0.5461982,-0.020656 -0.2418877,-0.020653 -0.4525641,-0.0537 V 5.9231099 q 0.2418877,0.045441 0.5110855,0.070224 0.2691975,0.024786 0.5500995,0.024786 0.3823387,0 0.6515363,-0.070226 0.2730991,-0.074356 0.4447613,-0.210676 0.1716625,-0.1363208 0.2496907,-0.3304735 0.078028,-0.1941531 0.078028,-0.4378772 0,-0.2230697 -0.093634,-0.3883064 Q 5.9593343,4.4153247 5.787672,4.30379 5.6199112,4.1922551 5.3819248,4.1385531 5.1478399,4.0807203 4.866938,4.0807203 H 4.2856271 V 3.4899991 h 0.5891137 q 0.2301835,0 0.4174514,-0.061964 0.1911694,-0.066094 0.3238175,-0.1858908 0.1365496,-0.119796 0.206775,-0.293295 0.074127,-0.1776295 0.074127,-0.4006991 0,-0.4337463 -0.2496905,-0.6320305 -0.2496907,-0.198284 -0.7334662,-0.198284 -0.2574933,0 -0.5305925,0.053702 -0.2730991,0.053702 -0.5852124,0.1611059 V 1.3047434 q 0.1326482,-0.049571 0.280902,-0.086749 0.1521552,-0.041309 0.3004089,-0.066095 0.1521551,-0.028916 0.300409,-0.041309 0.1482537,-0.016524 0.2848034,-0.016524 0.4057471,0 0.713959,0.095011 0.3082119,0.09088 0.5149868,0.2643786 0.2067751,0.1734986 0.3121133,0.4213535 0.1053391,0.2478551 0.1053391,0.5576741 0,0.4626628 -0.2262823,0.7766124 -0.2223806,0.3139499 -0.6125221,0.4998412 0.1989721,0.033048 0.3901415,0.132189 0.1950708,0.099142 0.347226,0.2561169 0.1560567,0.152844 0.2496906,0.3635208 0.097535,0.2106767 0.097535,0.4667948 z"
     style="font-size:5.99925px;font-family:Consolas;-inkscape-font-specification:'Consolas, Normal';stroke-width:1.54158"
     id="path654" /><path
     d="m 12.495552,3.8700435 q 0,0.6196378 -0.117043,1.1318715 -0.117044,0.508103 -0.355029,0.8757547 -0.237985,0.3635207 -0.593015,0.5659358 -0.351128,0.198284 -0.8271,0.198284 -0.409648,0 -0.7451707,-0.1611056 Q 9.522672,6.3155471 9.2846865,5.9768119 9.0466996,5.6380764 8.9179537,5.1134498 q -0.12875,-0.5246266 -0.12875,-1.2434063 0,-0.6196378 0.1170431,-1.1318716 Q 9.0271919,2.2259381 9.2612753,1.8624173 9.4992608,1.4947656 9.8542906,1.2964816 10.20932,1.0940666 10.681391,1.0940666 q 0.409648,0 0.74517,0.1652367 0.335522,0.1611058 0.573508,0.503972 0.237986,0.3387353 0.366734,0.8633618 0.12875,0.5246266 0.128749,1.2434064 z m -0.686649,0.024786 q 0,-0.1404514 -0.01172,-0.2767717 -0.0078,-0.1404511 -0.01951,-0.2726405 l -2.1574793,1.697807 q 0.058522,0.2148077 0.1482549,0.3965681 0.089726,0.1817603 0.214577,0.3139497 0.1287494,0.1280586 0.2887054,0.202415 0.163858,0.070224 0.370635,0.070224 0.265295,0 0.479874,-0.1363208 0.218479,-0.1363209 0.370634,-0.40483 0.152155,-0.2685096 0.234085,-0.6650779 0.08194,-0.4006989 0.08194,-0.9253255 z M 9.4758549,3.845258 q 0,0.1280585 0,0.2561169 0.00386,0.1280585 0.01561,0.2478551 L 11.648946,2.6596844 Q 11.590425,2.4490075 11.500692,2.275509 11.410966,2.1020105 11.286116,1.9780829 11.161269,1.8500244 11.001311,1.7797988 q -0.159957,-0.070226 -0.358929,-0.070226 -0.265296,0 -0.483776,0.1363203 Q 9.944028,1.9822137 9.7918721,2.2548543 9.6397176,2.5233641 9.5577876,2.9240633 9.4758521,3.3206312 9.4758521,3.8452578 Z"
     style="font-size:5.99925px;font-family:Consolas;-inkscape-font-specification:'Consolas, Normal';stroke-width:1.54158"
     id="path656" /><path
     d="m 16.511535,3.8700435 q 0,0.6196378 -0.117044,1.1318715 -0.117043,0.508103 -0.355029,0.8757547 -0.237986,0.3635207 -0.593014,0.5659358 -0.351127,0.198284 -0.827102,0.198284 -0.409647,0 -0.745169,-0.1611056 -0.335521,-0.1652368 -0.573507,-0.503972 -0.237987,-0.3387355 -0.366733,-0.8633621 -0.12875,-0.5246266 -0.12875,-1.2434063 0,-0.6196378 0.117043,-1.1318716 0.120945,-0.5122338 0.355029,-0.8757546 0.237987,-0.3676517 0.593015,-0.5659357 0.355029,-0.202415 0.8271,-0.202415 0.409649,0 0.74517,0.1652367 0.335522,0.1611058 0.573507,0.503972 0.237988,0.3387353 0.366735,0.8633618 0.12875,0.5246266 0.128749,1.2434064 z m -0.686649,0.024786 q 0,-0.1404514 -0.01172,-0.2767717 -0.0078,-0.1404511 -0.01951,-0.2726405 l -2.157464,1.6978073 q 0.05852,0.2148077 0.148256,0.396568 0.08973,0.1817603 0.214576,0.3139496 0.12875,0.1280587 0.288705,0.2024152 0.16386,0.070224 0.370636,0.070224 0.265295,0 0.479872,-0.1363208 0.21848,-0.1363209 0.370636,-0.4048299 0.152154,-0.2685097 0.234084,-0.665078 0.08194,-0.4006988 0.08194,-0.9253254 z M 13.49184,3.8452585 q 0,0.1280586 0,0.2561169 0.0038,0.1280585 0.01561,0.2478551 l 2.157486,-1.689546 Q 15.606416,2.4490076 15.516681,2.2755091 15.426951,2.1020106 15.302103,1.978083 15.177256,1.8500245 15.017299,1.7797989 q -0.159957,-0.070226 -0.358928,-0.070226 -0.265298,0 -0.483777,0.1363203 -0.214578,0.1363202 -0.366733,0.4089608 -0.152155,0.2685098 -0.234085,0.669209 -0.08193,0.3965679 -0.08193,0.9211945 z"
     style="font-size:5.99925px;font-family:Consolas;-inkscape-font-specification:'Consolas, Normal';stroke-width:1.54158"
     id="path658" /><path
     d="M 2.9634758,9.4182058 H 0.79819029 V 11.169715 H 2.8503347 v 0.615507 H 0.79819029 v 2.404195 H 0.08813258 V 8.7903063 H 2.9634758 Z"
     style="font-size:5.99925px;font-family:Consolas;-inkscape-font-specification:'Consolas, Normal';stroke-width:1.54158"
     id="path660" /><path
     d="M 6.9268854,9.4595149 4.7889096,14.189417 H 4.0125279 L 6.2324334,9.4595149 H 3.478034 V 8.7903063 h 3.4488514 z"
     style="font-size:5.99925px;font-family:Consolas;-inkscape-font-specification:'Consolas, Normal';stroke-width:1.54158"
     id="path662" /><path
     d="M 12.799861,14.189417 H 12.042988 L 11.687959,13.012104 H 9.5655882 L 9.2066573,14.189417 H 8.484896 L 10.17811,8.7903063 h 0.951947 z M 11.488985,12.355289 10.626773,9.4677768 9.7645599,12.355289 Z"
     style="font-size:5.99925px;font-family:Consolas;-inkscape-font-specification:'Consolas, Normal';stroke-width:1.54158"
     id="path664" /><path
     d="M 16.351577,14.189417 H 13.148515 V 13.520208 H 14.45939 V 9.5793116 l -1.221143,0.7022564 -0.249691,-0.6113762 1.62299,-0.9046711 h 0.600817 v 4.7546873 h 1.139214 z"
     style="font-size:5.99925px;font-family:Consolas;-inkscape-font-specification:'Consolas, Normal';stroke-width:1.54158"
     id="path666" /></g></svg>
