<?xml version="1.0" encoding="UTF-8" standalone="no"?>
<!DOCTYPE svg PUBLIC "-//W3C//DTD SVG 1.1//EN" "http://www.w3.org/Graphics/SVG/1.1/DTD/svg11.dtd">
<svg width="100%" height="100%" viewBox="0 0 20 20" version="1.1" xmlns="http://www.w3.org/2000/svg" xmlns:xlink="http://www.w3.org/1999/xlink" xml:space="preserve" xmlns:serif="http://www.serif.com/" style="fill-rule:evenodd;clip-rule:evenodd;stroke-linejoin:round;stroke-miterlimit:2;">
    <path d="M12,15.143L12.957,15.143L16.86,7.857L15.75,7.857C15.564,7.857 15.397,7.772 15.285,7.639L16.239,5.857L16.357,5.857L16.357,6.643L18.786,6.643L18.786,4.214L18,4.214L18,3L19.393,3C19.726,3 20,3.274 20,3.607L20,7.25C20,7.583 19.726,7.857 19.393,7.857L18.239,7.857L13.929,15.904L13.929,19.393C13.929,19.726 13.654,20 13.321,20L9.679,20C9.346,20 9.071,19.726 9.071,19.393L9.071,18L10.286,18L10.286,18.786L12.714,18.786L12.714,16.357L12,16.357L12,15.143Z" style="fill:rgb(235,235,235);fill-rule:nonzero;"/>
    <g transform="matrix(1.21429,0,0,1.21429,-3.64286,-3.64286)">
        <path d="M3.5,3C3.226,3 3,3.226 3,3.5L3,6.5C3,6.774 3.226,7 3.5,7L4.45,7L8,13.627L8,16.5C8,16.774 8.226,17 8.5,17L11.5,17C11.774,17 12,16.774 12,16.5L12,13.627L15.55,7L16.5,7C16.774,7 17,6.774 17,6.5L17,3.5C17,3.226 16.774,3 16.5,3L13.5,3C13.226,3 13,3.226 13,3.5L13,4L7,4L7,3.5C7,3.226 6.774,3 6.5,3L3.5,3ZM4,4L6,4L6,6L4,6L4,4ZM14,4L16,4L16,6L14,6L14,4ZM7,5L13,5L13,6.5C13,6.774 13.226,7 13.5,7L14.414,7L11.2,13L8.801,13L5.586,7L6.5,7C6.774,7 7,6.774 7,6.5L7,5ZM9,14L11,14L11,16L9,16L9,14Z" style="fill:rgb(245,245,245);fill-rule:nonzero;"/>
    </g>
</svg>
