<?xml version="1.0" encoding="UTF-8" standalone="no"?>
<svg
   viewBox="0 0 16 16"
   xml:space="preserve"
   version="1.1"
   id="svg4988"
   sodipodi:docname="extract.svg"
   width="16"
   height="16"
   inkscape:version="1.2.1 (9c6d41e410, 2022-07-14)"
   xmlns:inkscape="http://www.inkscape.org/namespaces/inkscape"
   xmlns:sodipodi="http://sodipodi.sourceforge.net/DTD/sodipodi-0.dtd"
   xmlns="http://www.w3.org/2000/svg"
   xmlns:svg="http://www.w3.org/2000/svg"><defs
   id="defs4992" /><sodipodi:namedview
   id="namedview4990"
   pagecolor="#000000"
   bordercolor="#000000"
   borderopacity="0.25"
   inkscape:showpageshadow="2"
   inkscape:pageopacity="0"
   inkscape:pagecheckerboard="0"
   inkscape:deskcolor="#d1d1d1"
   showgrid="true"
   inkscape:zoom="43.85"
   inkscape:cx="11.744584"
   inkscape:cy="8.3238312"
   inkscape:window-width="1920"
   inkscape:window-height="1057"
   inkscape:window-x="-8"
   inkscape:window-y="-8"
   inkscape:window-maximized="1"
   inkscape:current-layer="g4986"><inkscape:grid
     type="xygrid"
     id="grid5111" /></sodipodi:namedview>
    <g
   fill="#ffffff"
   id="g4986"
   transform="translate(-1.500065,-1.997)">
        <path
   fill="#ffffff"
   d="m 9.9856341,14.014677 a 0.5,0.5 0 0 1 -0.492,-0.506 V 4.7156775 l -3.146,3.147 a 0.50027817,0.50027817 0 1 1 -0.708,-0.707 l 3.958,-3.957 a 0.5,0.5 0 0 1 0.7919999,-0.002 0.5,0.5 0 0 1 0.004,0.006 l 3.954,3.953 a 0.5,0.5 0 1 1 -0.707,0.707 l -3.147,-3.147 v 8.7929995 a 0.5,0.5 0 0 1 -0.5079999,0.506 z"
   id="path4982" />
        <path
   fill="#ffffff"
   d="M 216.492,104.992 A 0.5,0.5 0 0 0 216,105.5 v 3 a 0.5,0.5 0 0 0 0.5,0.5 h 12 a 0.5,0.5 0 0 0 0.5,-0.5 v -3 a 0.5,0.5 0 1 0 -1,0 v 2.5 h -11 v -2.5 a 0.5,0.5 0 0 0 -0.508,-0.508 z"
   transform="matrix(-1,0,0,1,232.5,-92.003)"
   id="path4984" />
    </g>
</svg>
