<?xml version="1.0" encoding="UTF-8" standalone="no"?>
<svg
   viewBox="0 0 16 16"
   xml:space="preserve"
   version="1.1"
   id="svg507"
   sodipodi:docname="filter.svg"
   width="16"
   height="16"
   inkscape:version="1.2.1 (9c6d41e410, 2022-07-14)"
   xmlns:inkscape="http://www.inkscape.org/namespaces/inkscape"
   xmlns:sodipodi="http://sodipodi.sourceforge.net/DTD/sodipodi-0.dtd"
   xmlns="http://www.w3.org/2000/svg"
   xmlns:svg="http://www.w3.org/2000/svg"><defs
   id="defs511" /><sodipodi:namedview
   id="namedview509"
   pagecolor="#000000"
   bordercolor="#000000"
   borderopacity="0.25"
   inkscape:showpageshadow="2"
   inkscape:pageopacity="0"
   inkscape:pagecheckerboard="0"
   inkscape:deskcolor="#d1d1d1"
   showgrid="false"
   inkscape:zoom="43.85"
   inkscape:cx="9.9885975"
   inkscape:cy="9.9885975"
   inkscape:window-width="1920"
   inkscape:window-height="1057"
   inkscape:window-x="-8"
   inkscape:window-y="-8"
   inkscape:window-maximized="1"
   inkscape:current-layer="svg507" />
    <g
   fill="#ffffff"
   id="g505"
   transform="translate(-1.9999992,-2)">
        <path
   d="m 363.5,431 a 0.5,0.5 0 0 0 -0.5,0.5 v 1 a 0.5,0.5 0 0 0 0.146,0.354 l 4.854,4.853 v 3.793 a 0.5,0.5 0 0 0 0.146,0.354 l 3,3 A 0.5,0.5 0 0 0 372,444.5 v -6.793 l 4.854,-4.853 A 0.5,0.5 0 0 0 377,432.5 v -1 a 0.5,0.5 0 0 0 -0.5,-0.5 z m 0.5,1 h 12 v 0.293 l -4.854,4.853 A 0.5,0.5 0 0 0 371,437.5 v 5.793 l -2,-2 V 437.5 a 0.5,0.5 0 0 0 -0.146,-0.354 L 364,432.293 Z"
   fill="#ffffff"
   transform="matrix(-1,0,0,1,380,-427.927)"
   id="path503" />
    </g>
</svg>
