<?xml version="1.0" encoding="UTF-8" standalone="no"?>
<!DOCTYPE svg PUBLIC "-//W3C//DTD SVG 1.1//EN" "http://www.w3.org/Graphics/SVG/1.1/DTD/svg11.dtd">
<svg width="100%" height="100%" viewBox="0 0 20 20" version="1.1" xmlns="http://www.w3.org/2000/svg" xmlns:xlink="http://www.w3.org/1999/xlink" xml:space="preserve" xmlns:serif="http://www.serif.com/" style="fill-rule:evenodd;clip-rule:evenodd;stroke-linejoin:round;stroke-miterlimit:2;">
    <g transform="matrix(1.28571,0,0,1.28555,-2.85711,-2.8555)">
        <path d="M3.492,2.996C3.221,3 3,3.225 3,3.496C3,3.499 3,3.501 3,3.504L3,16.496C2.995,16.834 3.248,17.006 3.5,17.004L4,17L4,15.004L6,15.004L6,17L14,17L14,15.004L16,15.004L16,17L16.5,17C16.752,17 17.005,16.83 17,16.492L17,3.504C17.005,3.166 16.752,2.994 16.5,2.996L16,3L16,5.004L14,5.004L14,3L6,3L6,5.004L4,5.004L4,3L3.492,2.996ZM4,6.004L6,6.004L6,8.004L4,8.004L4,6.004ZM14,6.004L16,6.004L16,8.004L14,8.004L14,6.004ZM8.477,7.008C8.577,7.004 8.677,7.031 8.762,7.084L12.762,9.584C12.908,9.675 12.997,9.836 12.997,10.008C12.997,10.18 12.908,10.341 12.762,10.432L8.762,12.932C8.682,12.982 8.59,13.009 8.496,13.009C8.222,13.009 7.996,12.783 7.996,12.509L7.996,7.508C7.996,7.241 8.209,7.019 8.476,7.008L8.477,7.008ZM4,9.004L6,9.004L6,11.004L4,11.004L4,9.004ZM14,9.004L16,9.004L16,11.004L14,11.004L14,9.004ZM4,12.004L6,12.004L6,13.996L4,13.996L4,12.004ZM14,12.004L16,12.004L16,13.996L14,13.996L14,12.004Z" style="fill:white;fill-rule:nonzero;"/>
    </g>
</svg>
