<?xml version="1.0" encoding="UTF-8" standalone="no"?>
<svg
   viewBox="0 0 16 16"
   xml:space="preserve"
   version="1.1"
   id="svg537"
   sodipodi:docname="helpnodedata.svg"
   width="16"
   height="16"
   inkscape:version="1.2.1 (9c6d41e410, 2022-07-14)"
   xmlns:inkscape="http://www.inkscape.org/namespaces/inkscape"
   xmlns:sodipodi="http://sodipodi.sourceforge.net/DTD/sodipodi-0.dtd"
   xmlns="http://www.w3.org/2000/svg"
   xmlns:svg="http://www.w3.org/2000/svg"><defs
   id="defs541" /><sodipodi:namedview
   id="namedview539"
   pagecolor="#ffffff"
   bordercolor="#000000"
   borderopacity="0.25"
   inkscape:showpageshadow="2"
   inkscape:pageopacity="0.0"
   inkscape:pagecheckerboard="0"
   inkscape:deskcolor="#d1d1d1"
   showgrid="false"
   inkscape:zoom="43.85"
   inkscape:cx="9.9885975"
   inkscape:cy="8.1641961"
   inkscape:window-width="1920"
   inkscape:window-height="1057"
   inkscape:window-x="-8"
   inkscape:window-y="-8"
   inkscape:window-maximized="1"
   inkscape:current-layer="svg537" />
    <g
   fill="#ffffff"
   id="g535"
   transform="translate(-2,-2)">
        <path
   d="m 193.5,93 c -1.5,0 -2.5,1.3 -2.5,2.5 v 9 c 0,1.2 1,2.5 2.5,2.5 h 9 c 0.7,0 0.7,-1 0,-1 h -9 c -1,0 -1.5,-0.8 -1.5,-1.5 0,-0.7 0.5,-1.5 1.5,-1.5 h 9 c 0.3,0 0.5,-0.2 0.5,-0.5 v -9 c 0,-0.3 -0.2,-0.5 -0.5,-0.5 z m 4,1 c 1.4,0 2.5,1.1 2.5,2.5 0,1.2 -0.9,2.2 -2,2.4 v 1.1 h -1 v -1.5 c 0,-0.3 0.2,-0.5 0.5,-0.5 0.8,0 1.5,-0.7 1.5,-1.5 0,-0.8 -0.7,-1.5 -1.5,-1.5 -0.8,0 -1.5,0.7 -1.5,1.5 V 97 h -1 v -0.5 c 0,-1.4 1.1,-2.5 2.5,-2.5 z m -0.5,7 h 1 v 1 h -1 z m -3.5,3 c -0.3,0 -0.5,0.2 -0.5,0.5 0,0.3 0.2,0.5 0.5,0.5 h 9 c 0.3,0 0.5,-0.2 0.5,-0.5 0,-0.3 -0.2,-0.5 -0.5,-0.5 z"
   fill="#ffffff"
   transform="translate(-187,-90)"
   id="path533" />
    </g>
</svg>
