<?xml version="1.0" encoding="UTF-8" standalone="no"?>
<svg
   viewBox="0 0 16 16"
   xml:space="preserve"
   version="1.1"
   id="svg12"
   sodipodi:docname="home.svg"
   width="16"
   height="16"
   inkscape:version="1.2.1 (9c6d41e410, 2022-07-14)"
   xmlns:inkscape="http://www.inkscape.org/namespaces/inkscape"
   xmlns:sodipodi="http://sodipodi.sourceforge.net/DTD/sodipodi-0.dtd"
   xmlns="http://www.w3.org/2000/svg"
   xmlns:svg="http://www.w3.org/2000/svg"><defs
   id="defs16" /><sodipodi:namedview
   id="namedview14"
   pagecolor="#6e6e6e"
   bordercolor="#000000"
   borderopacity="0.25"
   inkscape:showpageshadow="2"
   inkscape:pageopacity="0"
   inkscape:pagecheckerboard="0"
   inkscape:deskcolor="#d1d1d1"
   showgrid="false"
   inkscape:zoom="43.85"
   inkscape:cx="9.9885975"
   inkscape:cy="9.9885975"
   inkscape:window-width="1920"
   inkscape:window-height="1057"
   inkscape:window-x="-8"
   inkscape:window-y="-8"
   inkscape:window-maximized="1"
   inkscape:current-layer="svg12" />
    <path
   d="m 7.9840446,1.0001227 a 1,1 0 0 0 -0.691,0.293 l -6,6 a 0.977,0.977 0 0 0 -0.293,0.707 v 0.5 a 0.5,0.5 0 0 0 0.5,0.5 h 0.5 v 5.5000003 a 0.5,0.5 0 0 0 0.5,0.5 h 3.5 V 9.5001227 a 0.5,0.5 0 0 1 0.5,-0.5 h 3 a 0.5,0.5 0 0 1 0.5000004,0.5 v 5.5000003 h 3.5 a 0.5,0.5 0 0 0 0.5,-0.5 V 9.0001227 h 0.5 a 0.5,0.5 0 0 0 0.5,-0.5 v -0.5 a 0.96,0.96 0 0 0 -0.293,-0.707 l -6.0000004,-6 a 1,1 0 0 0 -0.723,-0.293 z"
   fill="#ffffff"
   id="path10" />
</svg>
