<?xml version="1.0" encoding="UTF-8" standalone="no"?>
<!DOCTYPE svg PUBLIC "-//W3C//DTD SVG 1.1//EN" "http://www.w3.org/Graphics/SVG/1.1/DTD/svg11.dtd">
<svg width="100%" height="100%" viewBox="0 0 16 16" version="1.1" xmlns="http://www.w3.org/2000/svg" xmlns:xlink="http://www.w3.org/1999/xlink" xml:space="preserve" xmlns:serif="http://www.serif.com/" style="fill-rule:evenodd;clip-rule:evenodd;stroke-linejoin:round;stroke-miterlimit:2;">
    <g transform="matrix(1.01332,0,0,1.01332,-2.13319,-2.13309)">
        <path d="M4.474,2.105C4.107,2.105 3.756,2.251 3.497,2.51C3.238,2.769 3.092,3.12 3.092,3.487C3.092,6.134 3.092,11.892 3.092,14.539C3.092,14.906 3.238,15.257 3.497,15.516C3.756,15.775 4.107,15.921 4.474,15.921L6.129,15.921L6.129,17.382C6.129,17.663 6.355,17.895 6.629,17.895C6.778,17.895 6.919,17.827 7.014,17.709L9.364,15.921L15.526,15.921C15.893,15.921 16.244,15.775 16.503,15.516C16.762,15.257 16.908,14.906 16.908,14.539C16.908,11.892 16.908,6.134 16.908,3.487C16.908,3.12 16.762,2.769 16.503,2.51C16.244,2.251 15.893,2.105 15.526,2.105L4.474,2.105ZM8.822,4.343C8.822,4.273 8.85,4.206 8.899,4.156C8.949,4.107 9.016,4.079 9.086,4.079C9.547,4.079 10.491,4.079 10.952,4.079C11.022,4.079 11.089,4.107 11.139,4.156C11.189,4.206 11.217,4.273 11.217,4.343C11.217,4.721 11.217,5.41 11.217,5.788C11.217,5.858 11.189,5.925 11.139,5.975C11.089,6.025 11.022,6.052 10.952,6.052C10.491,6.052 9.547,6.052 9.086,6.052C9.016,6.052 8.949,6.025 8.899,5.975C8.85,5.925 8.822,5.858 8.822,5.788C8.822,5.41 8.822,4.721 8.822,4.343ZM7.507,7.413C7.51,7.206 7.678,7.039 7.885,7.039C8.593,7.039 10.124,7.039 10.837,7.039C10.938,7.039 11.034,7.079 11.105,7.15C11.176,7.222 11.215,7.318 11.215,7.419C11.211,8.574 11.197,11.974 11.197,11.974L12.161,11.974C12.262,11.974 12.358,12.014 12.429,12.085C12.5,12.156 12.54,12.252 12.54,12.352C12.54,12.706 12.54,13.231 12.54,13.581C12.54,13.678 12.501,13.771 12.432,13.84C12.364,13.909 12.27,13.947 12.173,13.947C11.236,13.947 8.764,13.947 7.827,13.947C7.73,13.947 7.636,13.909 7.568,13.84C7.499,13.771 7.46,13.678 7.46,13.581C7.46,13.231 7.46,12.706 7.46,12.352C7.46,12.252 7.5,12.156 7.571,12.085C7.642,12.014 7.738,11.974 7.839,11.974C8.236,11.974 8.803,11.974 8.803,11.974L8.803,8.663L7.841,8.663C7.749,8.663 7.661,8.626 7.596,8.561C7.531,8.495 7.495,8.406 7.496,8.314C7.5,8.049 7.504,7.684 7.507,7.413Z" style="fill:white;fill-opacity:0.61;fill-rule:nonzero;"/>
    </g>
</svg>
