<?xml version="1.0" encoding="UTF-8" standalone="no"?>
<svg
   viewBox="0 0 16 16"
   xml:space="preserve"
   version="1.1"
   id="svg373"
   sodipodi:docname="invert.svg"
   width="16"
   height="16"
   inkscape:version="1.2.1 (9c6d41e410, 2022-07-14)"
   xmlns:inkscape="http://www.inkscape.org/namespaces/inkscape"
   xmlns:sodipodi="http://sodipodi.sourceforge.net/DTD/sodipodi-0.dtd"
   xmlns="http://www.w3.org/2000/svg"
   xmlns:svg="http://www.w3.org/2000/svg"><defs
   id="defs377" /><sodipodi:namedview
   id="namedview375"
   pagecolor="#000000"
   bordercolor="#000000"
   borderopacity="0.25"
   inkscape:showpageshadow="2"
   inkscape:pageopacity="0"
   inkscape:pagecheckerboard="0"
   inkscape:deskcolor="#d1d1d1"
   showgrid="true"
   inkscape:zoom="7.7516581"
   inkscape:cx="-30.18709"
   inkscape:cy="-1.2900466"
   inkscape:window-width="1920"
   inkscape:window-height="1057"
   inkscape:window-x="-8"
   inkscape:window-y="-8"
   inkscape:window-maximized="1"
   inkscape:current-layer="svg373"><inkscape:grid
     type="xygrid"
     id="grid496" /></sodipodi:namedview>
    <path
   fill="#ffffff"
   d="m 11.496,3.994 a 0.5,0.5 0 0 0 -0.35,0.86 L 13.293,7 H 2.707 L 4.854,4.854 A 0.5006316,0.5006316 0 1 0 4.1459999,4.146 L 1.146,7.146 a 0.5,0.5 0 0 0 0,0.708 l 2.9999999,3 A 0.5006316,0.5006316 0 1 0 4.854,10.146 L 2.707,8 h 10.586 l -2.147,2.146 a 0.5006316,0.5006316 0 1 0 0.708,0.708 l 3,-3 a 0.5,0.5 0 0 0 0,-0.708 l -3,-3 A 0.5,0.5 0 0 0 11.496,3.994 Z"
   id="path371" />
</svg>
