<?xml version="1.0" encoding="UTF-8" standalone="no"?>
<!DOCTYPE svg PUBLIC "-//W3C//DTD SVG 1.1//EN" "http://www.w3.org/Graphics/SVG/1.1/DTD/svg11.dtd">
<svg width="100%" height="100%" viewBox="0 0 16 16" version="1.1" xmlns="http://www.w3.org/2000/svg" xmlns:xlink="http://www.w3.org/1999/xlink" xml:space="preserve" xmlns:serif="http://www.serif.com/" style="fill-rule:evenodd;clip-rule:evenodd;stroke-linejoin:round;stroke-miterlimit:2;">
    <g>
        <g transform="matrix(1,0,0,1,0,1)">
            <path d="M6,2L1,2L1,12L6,12L6,11L2,11L2,3L6,3L6,2" style="fill:white;"/>
        </g>
        <g transform="matrix(1,0,0,1,0,-1)">
            <rect x="7" y="7" width="8" height="1" style="fill:white;"/>
        </g>
        <g transform="matrix(1,0,0,1,0,-4)">
            <rect x="7" y="7" width="8" height="1" style="fill:white;"/>
        </g>
        <g transform="matrix(0.888889,0,0,1,1.66667,0)">
            <rect x="6" y="9" width="9" height="1" style="fill:white;"/>
        </g>
        <g transform="matrix(0.75,0,0,1,3.75,1)">
            <rect x="7" y="11" width="8" height="1" style="fill:white;"/>
        </g>
        <g transform="matrix(1,0,0,1,0,1)">
            <path d="M4,9L6.5,11.5L4,14L4,9" style="fill:white;"/>
        </g>
    </g>
</svg>
