<?xml version="1.0" encoding="UTF-8" standalone="no"?>
<svg
   viewBox="0 0 16 16"
   xml:space="preserve"
   version="1.1"
   id="svg610"
   sodipodi:docname="logicalcontrols.svg"
   width="16"
   height="16"
   inkscape:version="1.2.1 (9c6d41e410, 2022-07-14)"
   xmlns:inkscape="http://www.inkscape.org/namespaces/inkscape"
   xmlns:sodipodi="http://sodipodi.sourceforge.net/DTD/sodipodi-0.dtd"
   xmlns="http://www.w3.org/2000/svg"
   xmlns:svg="http://www.w3.org/2000/svg"><defs
   id="defs614" /><sodipodi:namedview
   id="namedview612"
   pagecolor="#ffffff"
   bordercolor="#000000"
   borderopacity="0.25"
   inkscape:showpageshadow="2"
   inkscape:pageopacity="0.0"
   inkscape:pagecheckerboard="0"
   inkscape:deskcolor="#d1d1d1"
   showgrid="false"
   inkscape:zoom="31.006632"
   inkscape:cx="13.997005"
   inkscape:cy="12.094187"
   inkscape:window-width="1920"
   inkscape:window-height="1057"
   inkscape:window-x="-8"
   inkscape:window-y="-8"
   inkscape:window-maximized="1"
   inkscape:current-layer="svg610" />
    <g
   fill="#ffffff"
   id="g608"
   transform="translate(-2,-2.0105713)">
        <g
   fill="#ffffff"
   id="g606">
            <path
   fill="#ffffff"
   d="M 157.492,453.992 A 0.5,0.5 0 0 0 157,454.5 v 4 a 0.5,0.5 0 1 0 1,0 v -4 a 0.5,0.5 0 0 0 -0.508,-0.508 z"
   transform="translate(-150,-449.01)"
   id="path602" />
            <path
   fill="#ffffff"
   d="m 80.477,451.021 a 0.5,0.5 0 0 0 -0.315,0.872 c 0.588,0.544 0.842,1.085 0.842,1.601 L 81,459.5 a 0.5,0.5 0 1 0 1,0 l 0.004,-6.006 c 0,-0.85 -0.432,-1.66 -1.162,-2.336 a 0.5,0.5 0 0 0 -0.365,-0.137 z M 71.562,452 A 3.566,3.566 0 0 0 68,455.563 v 7.875 A 3.566,3.566 0 0 0 71.563,467 h 3.874 A 3.566,3.566 0 0 0 79,463.437 v -7.875 A 3.566,3.566 0 0 0 75.437,452 Z m 0,1 h 3.876 A 2.546,2.546 0 0 1 78,455.563 v 7.875 A 2.546,2.546 0 0 1 75.437,466 H 71.563 A 2.546,2.546 0 0 1 69,463.437 v -7.875 A 2.546,2.546 0 0 1 71.563,453 Z m 11.93,0.037 A 0.5,0.5 0 0 0 83,453.543 v 4.059 a 0.5,0.5 0 1 0 1,0 v -4.059 a 0.5,0.5 0 0 0 -0.508,-0.506 z"
   transform="translate(-66,-449.01)"
   id="path604" />
        </g>
    </g>
</svg>
