<?xml version="1.0" encoding="UTF-8" standalone="no"?>
<svg
   viewBox="0 0 16 16"
   xml:space="preserve"
   version="1.1"
   id="svg35"
   sodipodi:docname="mechanicresearchsettings.svg"
   width="16"
   height="16"
   inkscape:version="1.2.1 (9c6d41e410, 2022-07-14)"
   xmlns:inkscape="http://www.inkscape.org/namespaces/inkscape"
   xmlns:sodipodi="http://sodipodi.sourceforge.net/DTD/sodipodi-0.dtd"
   xmlns="http://www.w3.org/2000/svg"
   xmlns:svg="http://www.w3.org/2000/svg"><defs
   id="defs39" /><sodipodi:namedview
   id="namedview37"
   pagecolor="#000000"
   bordercolor="#000000"
   borderopacity="0.25"
   inkscape:showpageshadow="2"
   inkscape:pageopacity="0"
   inkscape:pagecheckerboard="0"
   inkscape:deskcolor="#d1d1d1"
   showgrid="true"
   inkscape:zoom="30.19346"
   inkscape:cx="2.9145385"
   inkscape:cy="12.552387"
   inkscape:window-width="1920"
   inkscape:window-height="1057"
   inkscape:window-x="-8"
   inkscape:window-y="-8"
   inkscape:window-maximized="1"
   inkscape:current-layer="g31"><inkscape:grid
     type="xygrid"
     id="grid9373" /></sodipodi:namedview>
    <g
   fill="#ffffff"
   id="g33">
        
        <g
   fill="#ffffff"
   id="g31">
            
        <path
   d="M 8.5124795,6.7280349 A 2.7344485,2.9566927 0 0 0 5.7842665,9.677985 V 10.94225 H 5.3945219 a 0.38974465,0.42142142 0 0 0 -0.3897447,0.421421 v 4.214214 a 0.38974465,0.42142142 0 0 0 0.3897447,0.421421 H 11.630437 A 0.38974465,0.42142142 0 0 0 12.02018,15.577885 V 11.363671 A 0.38974465,0.42142142 0 0 0 11.630437,10.94225 H 11.240692 V 9.677985 c 0,-1.6241583 -1.226137,-2.9499501 -2.7282125,-2.9499501 z m 0,0.8428429 c 1.0811516,0 1.9487235,0.9380842 1.9487235,2.1071072 V 10.94225 H 6.5637558 V 9.677985 c 0,-1.169023 0.8675721,-2.1071072 1.9487237,-2.1071072 z M 8.1227348,12.627935 h 0.7794893 v 1.685686 H 8.1227348 v -0.842842 z"
   fill="#ffffff"
   id="path207"
   style="stroke-width:0.810547" /><path
   d="M 0.99849312,5.9763013 A 3.486,3.486 0 0 0 3.4984931,7.0363014 c 1.5,0 2.5000001,-0.7500001 3.1450001,-2.0000001 h 6.8550008 c 2.029,0.029 2.029,-3.029 0,-3 H 6.6454932 c -0.666,-1.28999996 -1.6470001,-1.99999996 -3.1470001,-1.99999996 -0.9789999,0 -1.864,0.408 -2.49999998,1.05999996 v 0.94 H 3.9984931 l 1,1 v 1 l -1,1 H 0.99849312 Z m 12.00000088,-1.94 v -1 h 1 v 1 z"
   fill="#ffffff"
   id="path391" /></g>
    </g>
</svg>
