<?xml version="1.0" encoding="UTF-8" standalone="no"?>
<!-- Uploaded to: SVG Repo, www.svgrepo.com, Generator: SVG Repo Mixer Tools -->

<svg
   width="16"
   height="16"
   viewBox="0 0 16 16"
   version="1.1"
   id="svg270"
   sodipodi:docname="modded.svg"
   inkscape:version="1.2.1 (9c6d41e410, 2022-07-14)"
   xmlns:inkscape="http://www.inkscape.org/namespaces/inkscape"
   xmlns:sodipodi="http://sodipodi.sourceforge.net/DTD/sodipodi-0.dtd"
   xmlns="http://www.w3.org/2000/svg"
   xmlns:svg="http://www.w3.org/2000/svg">
  <defs
     id="defs274" />
  <sodipodi:namedview
     id="namedview272"
     pagecolor="#000000"
     bordercolor="#000000"
     borderopacity="0.25"
     inkscape:showpageshadow="2"
     inkscape:pageopacity="0"
     inkscape:pagecheckerboard="0"
     inkscape:deskcolor="#d1d1d1"
     showgrid="false"
     inkscape:zoom="48.309535"
     inkscape:cx="8.9216342"
     inkscape:cy="7.4312452"
     inkscape:window-width="1920"
     inkscape:window-height="1057"
     inkscape:window-x="-8"
     inkscape:window-y="-8"
     inkscape:window-maximized="1"
     inkscape:current-layer="svg270" />
  <path
     d="M 15.910217,11.018364 C 15.81337,10.702842 15.672791,10.399813 15.507218,10.10303 15.410375,9.924965 15.291662,9.7500182 15.16358,9.5625793 15.379136,8.6003862 15.401002,7.5975794 15.222932,6.6228894 15.135463,6.1605382 15.007376,5.707556 14.829311,5.2670708 14.91678,5.0296491 14.994884,4.7953457 15.066733,4.557924 c 0.08747,-0.315526 0.137456,-0.659164 0.156199,-1.0215497 0.0094,-0.168696 0.0094,-0.334269 0,-0.4904681 C 15.213558,2.5929241 15.076106,2.268029 14.898037,2.0430994 14.848054,1.9649999 14.779323,1.8962695 14.710598,1.8369129 L 14.573142,1.6994567 C 14.407569,1.5432576 14.229499,1.3839354 14.051434,1.2371054 13.648434,0.90283652 13.264183,0.63729803 12.892428,0.42174231 12.723732,0.32489509 12.489428,0.19681276 12.214516,0.10621634 12.058317,0.05623356 11.920861,0.02811678 11.770908,0.00937383 11.711551,0 11.642826,0 11.583469,0 11.299183,0 11.080504,0.06873044 10.983661,0.10933938 h -0.0094 C 10.530679,0.24679554 10.108937,0.47172508 9.6465858,0.78725106 9.5091296,0.75912957 9.3716735,0.72789445 9.2342173,0.70914679 8.6531528,0.61230428 8.0439716,0.58106446 7.4441642,0.63104724 6.8724688,0.67165147 6.3039013,0.78725106 5.7728196,0.96531616 5.54789,1.0434157 5.3292113,1.12152 5.1230247,1.2121117 4.8075034,1.0934032 4.4544918,0.98718686 4.0608662,0.92783026 3.8046969,0.88722603 3.5391584,0.86847365 3.2954859,0.86847365 h -0.00937 c -0.1280823,0 -0.2561693,0.009374 -0.3748825,0.0187477 C 2.5363516,0.89659515 2.2614393,1.0246775 2.0646265,1.1715075 1.9771531,1.2308641 1.8990536,1.2995898 1.8272001,1.3776894 L 1.6897439,1.5151455 C 1.5335448,1.6713493 1.3835918,1.8494144 1.2367665,2.0274842 0.91186672,2.4304789 0.64632823,2.8053615 0.43077249,3.1771163 0.33392527,3.3458123 0.20584294,3.5707418 0.11524651,3.8456542 0.06526374,3.9924841 0.03714696,4.1299403 0.01840401,4.2673965 -0.0409526,4.6422743 0.05900824,4.9359343 0.09650356,5.0546428 v 0.00937 C 0.2839425,5.6357073 0.57759779,6.12618 0.81502421,6.4698181 0.78690272,6.5885313 0.76504143,6.7166136 0.74629377,6.8447006 0.6588251,7.4445081 0.6369544,8.0536893 0.696311,8.6534967 c 0.0593566,0.5716954 0.17806981,1.1402629 0.3530119,1.6526013 0.040604,0.09684 0.06873,0.196813 0.1093394,0.284282 -0.00937,0.02812 -0.018748,0.05936 -0.028122,0.08747 -0.1280871,0.343643 -0.29366002,0.79662 -0.36238575,1.308959 -0.0406042,0.246796 -0.0499828,0.502965 -0.0499828,0.737264 0,0.118713 0.009374,0.224929 0.0187477,0.334269 0.009374,0.334269 0.11871321,0.590438 0.24679554,0.787251 0.0687304,0.109339 0.15619911,0.206182 0.25616931,0.293655 l 0.1374562,0.137456 c 0.165573,0.156199 0.3436381,0.315526 0.5217079,0.462351 0.4029946,0.334269 0.787251,0.599812 1.1590059,0.815368 0.1655729,0.09684 0.4029946,0.224925 0.6779069,0.315521 0.1562038,0.04999 0.29366,0.07811 0.443613,0.09685 0.059352,0.0094 0.1280824,0.0094 0.187439,0.0094 0.2842814,0 0.5029646,-0.0781 0.5998071,-0.06873 h 0.00937 c 0.4717251,-0.156199 0.9247025,-0.393626 1.4339182,-0.756011 0.068726,0.0094 0.1468253,0.02812 0.2155557,0.0406 0.5904383,0.109339 1.1996195,0.156199 1.7994269,0.118713 0.5810645,-0.02812 1.1590059,-0.137456 1.7119539,-0.306152 0.187439,-0.05936 0.384252,-0.128087 0.571695,-0.206187 0.353012,0.137456 0.746638,0.274913 1.190246,0.343643 0.274912,0.04998 0.540451,0.06873 0.805989,0.06873 h 0.0094 c 0.128083,0 0.25617,-0.0094 0.374883,-0.01875 0.374878,-0.01875 0.64979,-0.137456 0.846603,-0.284286 0.08747,-0.06873 0.168696,-0.137456 0.237426,-0.215556 l 0.118709,-0.118713 c 0.315526,-0.334269 0.618555,-0.69665 0.884093,-1.071532 0.246801,-0.343639 0.521713,-0.756007 0.696655,-1.258972 0.04998,-0.14683 0.08747,-0.274912 0.109339,-0.412368 0.05623,-0.399877 -0.03434,-0.693532 -0.07185,-0.812245 z M 13.632814,9.8968482 C 13.2142,9.4657368 12.501925,8.9346551 11.16485,8.3504629 L 11.527235,7.6631821 8.7437493,8.4098195 9.7496791,10.984001 10.152674,10.21862 c 0.343642,0.156199 0.599807,0.315526 0.855977,0.502965 0.393625,0.274913 0.756011,0.581065 1.062163,0.90596 0.743514,0.752888 1.134012,1.524514 1.034046,2.161812 l -0.01248,0.0063 -0.04998,0.0094 c -0.343643,0.0406 -0.718525,0.01875 -1.099654,-0.06873 h -0.0094 c -0.412368,-0.109344 -0.821614,-0.26242 -1.233982,-0.452982 -0.8091173,0.412369 -1.7275737,0.64979 -2.6991407,0.64979 -0.6685378,0 -1.3089589,-0.112462 -1.9087663,-0.315521 0.4217423,-0.424865 0.9340763,-1.134017 1.4963978,-2.417982 L 8.2751566,11.561961 7.5285192,8.7784701 4.9418412,9.765657 5.7197185,10.187399 c -0.1561991,0.343638 -0.3155213,0.599808 -0.5029602,0.855977 -0.2749171,0.393626 -0.581069,0.756011 -0.9059641,1.062163 -0.7528835,0.74351 -1.5245146,1.134013 -2.1618126,1.034042 l -0.012483,-0.01248 -0.00937,-0.04999 c -0.040604,-0.343638 -0.018748,-0.71852 0.068726,-1.099649 v -0.0094 C 2.3114409,11.530726 2.4770138,11.096487 2.6831957,10.659129 2.277078,9.8562581 2.0490255,8.9471755 2.0490255,7.9849777 c 0,-0.6216734 0.096843,-1.2214855 0.2749123,-1.7838023 0.4154915,0.4342344 1.1308891,0.9746853 2.4898305,1.5682466 L 4.4513829,8.4567028 7.2348734,7.7100654 6.2414405,5.1046491 5.8259442,5.8918955 C 5.4823062,5.7356964 5.2261368,5.5763742 4.9699674,5.3889306 4.5763469,5.1140183 4.2139611,4.8078661 3.907809,4.482971 3.1705407,3.7332106 2.7769199,2.9678302 2.8737624,2.3336552 l 0.021857,-0.021856 0.049987,-0.00937 c 0.343638,-0.040604 0.7185206,-0.018748 1.0996492,0.068726 h 0.00937 c 0.3655127,0.096843 0.7310212,0.2280479 1.09653,0.3904978 0.8497307,-0.4623512 1.8181699,-0.7247667 2.8490934,-0.7247667 0.677907,0 1.3277019,0.1155855 1.9337601,0.3217721 C 9.4966469,2.7710269 8.9530683,3.4864245 8.3532609,4.8578583 L 7.6659801,4.4954773 8.4126175,7.2789634 11.008665,6.2949043 10.221418,5.873162 c 0.156199,-0.3436428 0.315522,-0.5998075 0.502965,-0.8559768 0.274913,-0.3936256 0.581065,-0.7560113 0.90596,-1.0621634 0.752883,-0.7435097 1.524514,-1.1340122 2.161812,-1.0340466 l 0.01248,0.012483 0.0094,0.049987 c 0.0406,0.3436381 0.01875,0.7185206 -0.06873,1.0996493 v 0.00937 c -0.106216,0.3998764 -0.256169,0.802871 -0.437362,1.2027426 0.412369,0.8091171 0.643544,1.7213274 0.643544,2.6928944 -0.0033,0.6654101 -0.115585,1.3089542 -0.318649,1.9087663 z"
     style="fill:#ffffff;stroke-width:0.0312401"
     id="path268" />
</svg>
