<?xml version="1.0" encoding="UTF-8" standalone="no"?>
<svg
   viewBox="0 0 16 16"
   xml:space="preserve"
   version="1.1"
   id="svg5148"
   sodipodi:docname="new.svg"
   width="16"
   height="16"
   inkscape:version="1.2.1 (9c6d41e410, 2022-07-14)"
   xmlns:inkscape="http://www.inkscape.org/namespaces/inkscape"
   xmlns:sodipodi="http://sodipodi.sourceforge.net/DTD/sodipodi-0.dtd"
   xmlns="http://www.w3.org/2000/svg"
   xmlns:svg="http://www.w3.org/2000/svg"><defs
   id="defs5152" /><sodipodi:namedview
   id="namedview5150"
   pagecolor="#000000"
   bordercolor="#000000"
   borderopacity="0.25"
   inkscape:showpageshadow="2"
   inkscape:pageopacity="0"
   inkscape:pagecheckerboard="0"
   inkscape:deskcolor="#d1d1d1"
   showgrid="true"
   inkscape:zoom="43.85"
   inkscape:cx="9.9885975"
   inkscape:cy="6.3397948"
   inkscape:window-width="1920"
   inkscape:window-height="1057"
   inkscape:window-x="-8"
   inkscape:window-y="-8"
   inkscape:window-maximized="1"
   inkscape:current-layer="svg5148"><inkscape:grid
     type="xygrid"
     id="grid5271" /></sodipodi:namedview>
    <g
   fill="#ffffff"
   id="g5146"
   transform="translate(-2,-2)">
        <path
   fill="#ffffff"
   d="m 158.48,493 a 0.5,0.5 0 0 0 -0.384,0.197 l -4.95,4.95 A 0.5,0.5 0 0 0 153.5,499 h 5 a 0.5,0.5 0 0 0 0.5,-0.5 V 494 h 5 v 12 h -10 v -6 h -1 v 6.5 a 0.5,0.5 0 0 0 0.5,0.5 h 11 a 0.5,0.5 0 0 0 0.5,-0.5 v -13 a 0.5,0.5 0 0 0 -0.5,-0.5 z"
   transform="translate(-149,-490)"
   id="path5144" />
    </g>
</svg>
