<?xml version="1.0" encoding="UTF-8" standalone="no"?>
<svg
   width="16"
   height="16"
   viewBox="0 0 16 16"
   version="1.1"
   xml:space="preserve"
   style="clip-rule:evenodd;fill-rule:evenodd;stroke-linejoin:round;stroke-miterlimit:2"
   id="svg574"
   sodipodi:docname="particleeffect.svg"
   inkscape:version="1.2.1 (9c6d41e410, 2022-07-14)"
   xmlns:inkscape="http://www.inkscape.org/namespaces/inkscape"
   xmlns:sodipodi="http://sodipodi.sourceforge.net/DTD/sodipodi-0.dtd"
   xmlns="http://www.w3.org/2000/svg"
   xmlns:svg="http://www.w3.org/2000/svg"><defs
   id="defs578" /><sodipodi:namedview
   id="namedview576"
   pagecolor="#4d4d4d"
   bordercolor="#000000"
   borderopacity="0.25"
   inkscape:showpageshadow="2"
   inkscape:pageopacity="0"
   inkscape:pagecheckerboard="0"
   inkscape:deskcolor="#d1d1d1"
   showgrid="false"
   inkscape:zoom="31.006632"
   inkscape:cx="13.513238"
   inkscape:cy="9.0948284"
   inkscape:window-width="1920"
   inkscape:window-height="1057"
   inkscape:window-x="-8"
   inkscape:window-y="-8"
   inkscape:window-maximized="1"
   inkscape:current-layer="svg574" />
    <g
   transform="matrix(1.1428571,0,0,1.142852,-3.4285734,-3.428558)"
   id="g572">
        <g
   transform="rotate(90,414,-50)"
   id="g566">
            <path
   d="m 469.5,356 c -1.37,0.004 -2.496,1.13 -2.5,2.5 0,1.375 1.125,2.5 2.5,2.5 1.375,0 2.5,-1.125 2.5,-2.5 0,-1.375 -1.125,-2.5 -2.5,-2.5 z"
   style="fill:#ffffff;fill-rule:nonzero"
   id="path564" />
        </g>
        <g
   transform="matrix(1,0,0,-1,-213,574)"
   id="g570">
            <path
   d="m 218.5,557 c -0.823,0 -1.5,0.677 -1.5,1.5 0,0.647 0.421,1.198 1,1.406 v 4.594 c -0.01,0.676 1.01,0.676 1,0 v -4.594 c 0.579,-0.208 1,-0.76 1,-1.406 0,-0.823 -0.677,-1.5 -1.5,-1.5 z m 9.5,0 c -1.099,0 -2,0.901 -2,2 0,0.369 0.109,0.71 0.285,1.008 l -5.139,5.138 c -0.49,0.472 0.236,1.198 0.708,0.708 l 5.138,-5.14 c 0.298,0.177 0.64,0.286 1.008,0.286 1.099,0 2,-0.901 2,-2 0,-1.099 -0.901,-2 -2,-2 z m 0.5,10 c -0.647,0 -1.198,0.421 -1.406,1 H 222.5 c -0.676,-0.01 -0.676,1.01 0,1 h 4.594 c 0.208,0.579 0.76,1 1.406,1 0.823,0 1.5,-0.677 1.5,-1.5 0,-0.823 -0.677,-1.5 -1.5,-1.5 z"
   style="fill:#ffffff;fill-rule:nonzero"
   id="path568" />
        </g>
    </g>
</svg>
