<?xml version="1.0" encoding="UTF-8" standalone="no"?>
<!DOCTYPE svg PUBLIC "-//W3C//DTD SVG 1.1//EN" "http://www.w3.org/Graphics/SVG/1.1/DTD/svg11.dtd">
<svg width="100%" height="100%" viewBox="0 0 20 20" version="1.1" xmlns="http://www.w3.org/2000/svg" xmlns:xlink="http://www.w3.org/1999/xlink" xml:space="preserve" xmlns:serif="http://www.serif.com/" style="fill-rule:evenodd;clip-rule:evenodd;stroke-linejoin:round;stroke-miterlimit:2;">
    <g transform="matrix(1.28571,0,0,1.28571,-2.85714,-2.85714)">
        <g transform="matrix(-3.82857e-16,1,-1,-3.82857e-16,364,-464)">
            <path d="M469.5,356C468.13,356.004 467.004,357.13 467,358.5C467,359.875 468.125,361 469.5,361C470.875,361 472,359.875 472,358.5C472,357.125 470.875,356 469.5,356Z" style="fill:white;fill-rule:nonzero;"/>
        </g>
        <g transform="matrix(1,0,0,-1,-213,574)">
            <path d="M218.5,557C217.677,557 217,557.677 217,558.5C217,559.147 217.421,559.698 218,559.906L218,564.5C217.99,565.176 219.01,565.176 219,564.5L219,559.906C219.579,559.698 220,559.146 220,558.5C220,557.677 219.323,557 218.5,557ZM228,557C226.901,557 226,557.901 226,559C226,559.369 226.109,559.71 226.285,560.008L221.146,565.146C220.656,565.618 221.382,566.344 221.854,565.854L226.992,560.714C227.29,560.891 227.632,561 228,561C229.099,561 230,560.099 230,559C230,557.901 229.099,557 228,557ZM228.5,567C227.853,567 227.302,567.421 227.094,568L222.5,568C221.824,567.99 221.824,569.01 222.5,569L227.094,569C227.302,569.579 227.854,570 228.5,570C229.323,570 230,569.323 230,568.5C230,567.677 229.323,567 228.5,567Z" style="fill:white;fill-rule:nonzero;"/>
        </g>
    </g>
</svg>
