<?xml version="1.0" encoding="UTF-8" standalone="no"?>
<!DOCTYPE svg PUBLIC "-//W3C//DTD SVG 1.1//EN" "http://www.w3.org/Graphics/SVG/1.1/DTD/svg11.dtd">
<svg width="100%" height="100%" viewBox="0 0 20 20" version="1.1" xmlns="http://www.w3.org/2000/svg" xmlns:xlink="http://www.w3.org/1999/xlink" xml:space="preserve" xmlns:serif="http://www.serif.com/" style="fill-rule:evenodd;clip-rule:evenodd;stroke-linejoin:round;stroke-miterlimit:2;">
    <g transform="matrix(1.2841,0,0,1.2841,-2.84407,-2.84171)">
        <g transform="matrix(1,0,0,1,-1389.03,-571.005)">
            <path d="M1404.47,576.963C1404.43,576.965 1404.4,576.968 1404.37,576.973C1399.44,577.509 1395.52,581.426 1394.97,586.348C1394.97,586.404 1394.96,586.46 1394.96,586.517C1394.96,587.34 1395.64,588.017 1396.46,588.017C1397.23,588.017 1397.87,587.435 1397.95,586.676C1398.34,583.144 1401.15,580.332 1404.68,579.956C1405.46,579.9 1406.08,579.242 1406.08,578.46C1406.08,577.636 1405.4,576.959 1404.58,576.959C1404.54,576.959 1404.51,576.96 1404.47,576.963Z" style="fill:white;fill-rule:nonzero;"/>
        </g>
        <g transform="matrix(1,0,0,1,-1389.03,-571.005)">
            <path d="M1405.5,573.998C1398.05,573.998 1392,580.048 1392,587.498C1392,587.772 1392.22,587.998 1392.5,587.998C1392.77,587.998 1393,587.772 1393,587.498C1393,580.588 1398.59,574.998 1405.5,574.998C1405.77,574.998 1406,574.772 1406,574.498C1406,574.224 1405.77,573.998 1405.5,573.998Z" style="fill:white;fill-rule:nonzero;"/>
        </g>
    </g>
</svg>
