<?xml version="1.0" encoding="UTF-8" standalone="no"?>
<!DOCTYPE svg PUBLIC "-//W3C//DTD SVG 1.1//EN" "http://www.w3.org/Graphics/SVG/1.1/DTD/svg11.dtd">
<svg width="100%" height="100%" viewBox="0 0 20 20" version="1.1" xmlns="http://www.w3.org/2000/svg" xmlns:xlink="http://www.w3.org/1999/xlink" xml:space="preserve" xmlns:serif="http://www.serif.com/" style="fill-rule:evenodd;clip-rule:evenodd;stroke-linejoin:round;stroke-miterlimit:2;">
    <g transform="matrix(1.28551,0,0,1.28551,-2.8551,-2.8551)">
        <g transform="matrix(1,0,0,1,-339.003,-301.994)">
            <path d="M347.506,306C347.232,306 347.007,306.226 347.007,306.5C347.007,306.529 347.009,306.558 347.014,306.586C347.378,308.659 347.209,309.696 346.906,310.216C346.603,310.738 346.116,310.903 345.446,311.158C344.776,311.413 343.936,311.781 343.463,312.748C342.989,313.715 342.872,315.155 343.256,317.578C343.294,317.82 343.505,318 343.75,318L350.506,318C350.78,318 351.006,317.774 351.006,317.5C351.006,317.474 351.004,317.448 351,317.422C350.631,315.094 350.793,313.846 351.115,313.187C351.437,312.529 351.908,312.337 352.551,312.092C353.193,311.847 354.021,311.572 354.516,310.719C355.011,309.865 355.125,308.591 354.742,306.414C354.7,306.176 354.492,306 354.25,306L347.506,306Z" style="fill:white;fill-rule:nonzero;"/>
        </g>
        <g transform="matrix(1,0,0,1,-339.003,-301.994)">
            <path d="M342.498,304.994C342.224,304.994 341.998,305.22 341.998,305.494L341.998,307.494C341.998,307.768 342.224,307.994 342.498,307.994L344.498,307.994C344.772,307.994 344.998,307.768 344.998,307.494L344.998,305.494C344.998,305.22 344.772,304.994 344.498,304.994L342.498,304.994ZM342.998,305.994L343.998,305.994L343.998,306.994L342.998,306.994L342.998,305.994ZM353.508,315.994C353.234,315.994 353.008,316.22 353.008,316.494L353.008,318.494C353.008,318.768 353.234,318.994 353.508,318.994L355.508,318.994C355.782,318.994 356.008,318.768 356.008,318.494L356.008,316.494C356.008,316.22 355.782,315.994 355.508,315.994L353.508,315.994ZM354.008,316.994L355.008,316.994L355.008,317.994L354.008,317.994L354.008,316.994Z" style="fill:white;fill-rule:nonzero;"/>
        </g>
    </g>
</svg>
