<?xml version="1.0" encoding="UTF-8" standalone="no"?>
<!DOCTYPE svg PUBLIC "-//W3C//DTD SVG 1.1//EN" "http://www.w3.org/Graphics/SVG/1.1/DTD/svg11.dtd">
<svg width="100%" height="100%" viewBox="0 0 20 20" version="1.1" xmlns="http://www.w3.org/2000/svg" xmlns:xlink="http://www.w3.org/1999/xlink" xml:space="preserve" xmlns:serif="http://www.serif.com/" style="fill-rule:evenodd;clip-rule:evenodd;stroke-linejoin:round;stroke-miterlimit:2;">
    <g transform="matrix(1.28571,0,0,1.28571,-2.85523,-2.85714)">
        <g transform="matrix(1,0,0,1,-423.007,-533)">
            <path d="M433,541C431.901,541 431,541.901 431,543C431,544.099 431.901,545 433,545C434.099,545 435,544.099 435,543C435,541.901 434.099,541 433,541Z" style="fill:white;fill-rule:nonzero;"/>
        </g>
        <g transform="matrix(1,0,0,1,-423.007,-533)">
            <path d="M433.08,537.984C430.329,537.988 428.066,540.249 428.06,543C428.06,545.752 430.303,548.023 433.082,548.016L439.002,548C439.55,547.999 440,547.548 440,547C440,546.451 439.549,546 439,546C438.999,546 438.999,546 438.998,546L433.078,546.016C431.375,546.021 430.06,544.683 430.06,543C430.06,542.989 430.06,542.978 430.06,542.967C430.06,541.33 431.406,539.984 433.043,539.984C433.055,539.984 433.066,539.984 433.078,539.984L438.998,540C438.999,540 438.999,540 439,540C439.549,540 440,539.549 440,539C440,538.452 439.55,538.001 439.002,538L433.082,537.984C433.081,537.984 433.081,537.984 433.08,537.984Z" style="fill:white;fill-rule:nonzero;"/>
        </g>
        <g transform="matrix(1,0,0,1,-423.007,-533)">
            <path d="M433,536C429.16,536.001 426.001,539.162 426.001,543.002C426.001,544.23 426.324,545.436 426.937,546.5C428.186,548.663 430.502,550 433,550L439.5,550C439.774,550 440,549.774 440,549.5C440,549.226 439.774,549 439.5,549L433,549C429.708,549 427,546.292 427,543C427,539.708 429.708,537 433,537L439.5,537C439.774,537 440,536.774 440,536.5C440,536.226 439.774,536 439.5,536L433,536Z" style="fill:white;fill-rule:nonzero;"/>
        </g>
    </g>
</svg>
