<?xml version="1.0" encoding="UTF-8" standalone="no"?>
<svg
   viewBox="0 0 16 16"
   xml:space="preserve"
   version="1.1"
   id="svg146"
   sodipodi:docname="preferences.svg"
   width="16"
   height="16"
   inkscape:version="1.2.1 (9c6d41e410, 2022-07-14)"
   xmlns:inkscape="http://www.inkscape.org/namespaces/inkscape"
   xmlns:sodipodi="http://sodipodi.sourceforge.net/DTD/sodipodi-0.dtd"
   xmlns="http://www.w3.org/2000/svg"
   xmlns:svg="http://www.w3.org/2000/svg"><defs
   id="defs150" /><sodipodi:namedview
   id="namedview148"
   pagecolor="#000000"
   bordercolor="#000000"
   borderopacity="0.25"
   inkscape:showpageshadow="2"
   inkscape:pageopacity="0"
   inkscape:pagecheckerboard="0"
   inkscape:deskcolor="#d1d1d1"
   showgrid="false"
   inkscape:zoom="21.35"
   inkscape:cx="12.36534"
   inkscape:cy="12.177986"
   inkscape:window-width="1920"
   inkscape:window-height="1057"
   inkscape:window-x="-8"
   inkscape:window-y="-8"
   inkscape:window-maximized="1"
   inkscape:current-layer="svg146" />
    <g
   fill="#ffffff"
   id="g144"
   transform="translate(-2,-2)">
        <path
   fill="#ffffff"
   d="m 285,536 -0.156,1.906 c -0.623,0.143 -1.077,0.252 -1.594,0.594 l -1.75,-1.5 -1.5,1.5 1.5,1.75 c -0.342,0.517 -0.451,0.97 -0.594,1.594 L 279,542 v 2 l 1.906,0.156 c 0.143,0.623 0.252,1.077 0.594,1.594 l -1.5,1.75 1.5,1.5 1.75,-1.5 c 0.517,0.342 0.97,0.451 1.594,0.594 L 285,550 h 2 l 0.156,-1.906 c 0.623,-0.143 1.077,-0.252 1.594,-0.594 l 1.75,1.5 1.5,-1.5 -1.5,-1.75 c 0.342,-0.517 0.451,-0.97 0.594,-1.594 L 293,544 v -2 l -1.906,-0.156 c -0.143,-0.623 -0.252,-1.077 -0.594,-1.594 l 1.5,-1.75 -1.5,-1.5 -1.75,1.5 c -0.517,-0.342 -0.97,-0.451 -1.594,-0.594 L 287,536 h -1 z m 1,5 c 1.116,0 2,0.884 2,2 0,1.116 -0.884,2 -2,2 -1.116,0 -2,-0.884 -2,-2 0,-1.116 0.884,-2 2,-2 z"
   transform="translate(-276,-533)"
   id="path142" />
    </g>
</svg>
