<?xml version="1.0" encoding="UTF-8" standalone="no"?>
<!-- Generator: Adobe Illustrator 19.0.0, SVG Export Plug-In . SVG Version: 6.00 Build 0)  -->

<svg
   version="1.1"
   id="Layer_1"
   x="0px"
   y="0px"
   viewBox="0 0 16.000059 16.000058"
   xml:space="preserve"
   sodipodi:docname="pscollection.svg"
   width="16"
   height="16"
   inkscape:version="1.2.1 (9c6d41e410, 2022-07-14)"
   xmlns:inkscape="http://www.inkscape.org/namespaces/inkscape"
   xmlns:sodipodi="http://sodipodi.sourceforge.net/DTD/sodipodi-0.dtd"
   xmlns="http://www.w3.org/2000/svg"
   xmlns:svg="http://www.w3.org/2000/svg"><defs
   id="defs182" /><sodipodi:namedview
   id="namedview180"
   pagecolor="#ffffff"
   bordercolor="#000000"
   borderopacity="0.25"
   inkscape:showpageshadow="2"
   inkscape:pageopacity="0"
   inkscape:pagecheckerboard="0"
   inkscape:deskcolor="#d1d1d1"
   showgrid="false"
   inkscape:zoom="40.443407"
   inkscape:cx="10.285978"
   inkscape:cy="9.9398155"
   inkscape:window-width="1920"
   inkscape:window-height="1057"
   inkscape:window-x="-8"
   inkscape:window-y="-8"
   inkscape:window-maximized="1"
   inkscape:current-layer="g117" />
<g
   id="g117"
   transform="matrix(0.06189165,0,0,0.06189165,-5.9415984,0)">
	<g
   id="g115"
   style="fill:#ffffff"
   transform="matrix(0.79302405,0,0,0.79302405,30.949282,2.3970277)">
		<path
   d="M 245.333,0 C 172.928,0 96,22.421 96,64 v 192 c 0,42.027 75.115,64 149.333,64 74.218,0 149.333,-21.973 149.333,-64 V 64 C 394.667,22.421 317.739,0 245.333,0 Z m 128,256 c 0,20.181 -52.565,42.667 -128,42.667 -75.435,0 -128,-22.485 -128,-42.667 v -29.909 c 27.883,19.584 78.933,29.909 128,29.909 49.067,0 100.117,-10.325 128,-29.909 z m 0,-64 c 0,17.813 -48.704,42.667 -128,42.667 -79.296,0 -128,-24.853 -128,-42.667 v -29.909 c 27.883,19.584 78.933,29.909 128,29.909 49.067,0 100.117,-10.325 128,-29.909 z m 0,-64 c 0,17.813 -48.704,42.667 -128,42.667 -79.296,0 -128,-24.853 -128,-42.667 V 98.091 c 27.883,19.584 78.933,29.909 128,29.909 49.067,0 100.117,-10.325 128,-29.909 z m -128,-21.333 c -79.296,0 -128,-24.853 -128,-42.667 0,-17.813 48.704,-42.667 128,-42.667 79.296,0 128,24.853 128,42.667 0,17.813 -48.704,42.667 -128,42.667 z"
   id="path113"
   style="fill:#ffffff" />
	</g>
</g>





<g
   id="g149"
   transform="translate(-0.8926372,-0.12362997)">
</g>
<g
   id="g151"
   transform="translate(-0.8926372,-0.12362997)">
</g>
<g
   id="g153"
   transform="translate(-0.8926372,-0.12362997)">
</g>
<g
   id="g155"
   transform="translate(-0.8926372,-0.12362997)">
</g>
<g
   id="g157"
   transform="translate(-0.8926372,-0.12362997)">
</g>
<g
   id="g159"
   transform="translate(-0.8926372,-0.12362997)">
</g>
<g
   id="g161"
   transform="translate(-0.8926372,-0.12362997)">
</g>
<g
   id="g163"
   transform="translate(-0.8926372,-0.12362997)">
</g>
<g
   id="g165"
   transform="translate(-0.8926372,-0.12362997)">
</g>
<g
   id="g167"
   transform="translate(-0.8926372,-0.12362997)">
</g>
<g
   id="g169"
   transform="translate(-0.8926372,-0.12362997)">
</g>
<g
   id="g171"
   transform="translate(-0.8926372,-0.12362997)">
</g>
<g
   id="g173"
   transform="translate(-0.8926372,-0.12362997)">
</g>
<g
   id="g175"
   transform="translate(-0.8926372,-0.12362997)">
</g>
<g
   id="g177"
   transform="translate(-0.8926372,-0.12362997)">
</g>
</svg>
