<?xml version="1.0" encoding="UTF-8" standalone="no"?><!DOCTYPE svg PUBLIC "-//W3C//DTD SVG 1.1//EN" "http://www.w3.org/Graphics/SVG/1.1/DTD/svg11.dtd"><svg width="100%" height="100%" viewBox="0 0 14 14" version="1.1" xmlns="http://www.w3.org/2000/svg" xmlns:xlink="http://www.w3.org/1999/xlink" xml:space="preserve" xmlns:serif="http://www.serif.com/" style="fill-rule:evenodd;clip-rule:evenodd;stroke-linejoin:round;stroke-miterlimit:2;"><path d="M2.048,11.92c-0.63,-0.676 -1.129,-1.437 -1.497,-2.283c-0.367,-0.846 -0.551,-1.73 -0.551,-2.652c0,-0.933 0.178,-1.822 0.534,-2.668c0.356,-0.846 0.86,-1.602 1.514,-2.267l0.752,0.735c-0.56,0.56 -0.992,1.202 -1.295,1.925c-0.303,0.724 -0.455,1.482 -0.455,2.275c0,0.782 0.158,1.529 0.473,2.24c0.315,0.712 0.74,1.36 1.277,1.943l-0.752,0.752Zm3.202,-0.892c-0.245,-0 -0.452,-0.085 -0.621,-0.254c-0.169,-0.169 -0.254,-0.376 -0.254,-0.621c0,-0.245 0.085,-0.452 0.254,-0.621c0.169,-0.169 0.376,-0.254 0.621,-0.254c0.245,-0 0.452,0.085 0.621,0.254c0.169,0.169 0.254,0.376 0.254,0.621c0,0.245 -0.085,0.452 -0.254,0.621c-0.169,0.169 -0.376,0.254 -0.621,0.254Zm2.608,-3.5l-0.001,-1.383l-1.172,0.7l-0.525,-0.91l1.172,-0.682l-1.172,-0.683l0.525,-0.91l1.172,0.7l0,-1.382l1.05,-0l0,1.382l1.173,-0.7l0.525,0.91l-1.173,0.683l1.173,0.682l-0.525,0.91l-1.173,-0.7l0,1.383l-1.05,-0Zm4.095,4.392l-0.752,-0.752c0.548,-0.56 0.977,-1.199 1.286,-1.916c0.309,-0.718 0.464,-1.473 0.464,-2.267c0,-0.793 -0.155,-1.548 -0.464,-2.266c-0.309,-0.717 -0.738,-1.362 -1.286,-1.934l0.752,-0.735c0.63,0.677 1.129,1.438 1.497,2.284c0.367,0.846 0.551,1.73 0.551,2.651c-0,0.934 -0.178,1.823 -0.534,2.669c-0.356,0.846 -0.86,1.601 -1.514,2.266Z" style="fill:#fff;fill-rule:nonzero;"/></svg>