<?xml version="1.0" encoding="UTF-8" standalone="no"?>
<svg
   viewBox="0 0 16 16"
   xml:space="preserve"
   version="1.1"
   id="svg154"
   sodipodi:docname="remove.svg"
   width="16"
   height="16"
   inkscape:version="1.2.1 (9c6d41e410, 2022-07-14)"
   xmlns:inkscape="http://www.inkscape.org/namespaces/inkscape"
   xmlns:sodipodi="http://sodipodi.sourceforge.net/DTD/sodipodi-0.dtd"
   xmlns="http://www.w3.org/2000/svg"
   xmlns:svg="http://www.w3.org/2000/svg"><defs
   id="defs158" /><sodipodi:namedview
   id="namedview156"
   pagecolor="#000000"
   bordercolor="#000000"
   borderopacity="0.25"
   inkscape:showpageshadow="2"
   inkscape:pageopacity="0"
   inkscape:pagecheckerboard="0"
   inkscape:deskcolor="#d1d1d1"
   showgrid="true"
   inkscape:zoom="30.19346"
   inkscape:cx="6.9220289"
   inkscape:cy="9.9690464"
   inkscape:window-width="1920"
   inkscape:window-height="1057"
   inkscape:window-x="-8"
   inkscape:window-y="-8"
   inkscape:window-maximized="1"
   inkscape:current-layer="svg154"><inkscape:grid
     type="xygrid"
     id="grid345" /></sodipodi:namedview>
    <g
   fill="#ffffff"
   id="g152"
   transform="translate(-2,-2.5)">
        <g
   fill="#ffffff"
   id="g148">
            <path
   fill="#ffffff"
   d="m 701,1726 v 7.25 c 0,0.486 0.17,0.94 0.49,1.26 0.32,0.32 0.774,0.49 1.26,0.49 h 6.5 c 0.486,0 0.94,-0.17 1.26,-0.49 0.32,-0.32 0.49,-0.774 0.49,-1.26 V 1726 h -1 v 7.25 c 0,0.264 -0.08,0.435 -0.197,0.553 -0.118,0.117 -0.29,0.197 -0.553,0.197 h -6.5 c -0.264,0 -0.435,-0.08 -0.553,-0.197 -0.117,-0.118 -0.197,-0.29 -0.197,-0.553 V 1726 Z m 3.5,-4 a 0.5,0.5 0 0 0 -0.5,0.5 v 1.5 h -3.5 c -0.676,-0.01 -0.676,1.01 0,1 h 11 c 0.676,0.01 0.676,-1.01 0,-1 H 708 v -1.5 a 0.5,0.5 0 0 0 -0.5,-0.5 z m 0.5,1 h 2 v 1 h -2 z"
   transform="translate(-696,-1718.5)"
   id="path146" />
        </g>
        <path
   fill="#ffffff"
   d="M 704.492,1726.992 A 0.497,0.497 0 0 0 704,1727.5 v 4 c -0.01,0.676 1.01,0.676 1,0 v -4 a 0.5,0.5 0 0 0 -0.508,-0.508 z m 3,0 A 0.497,0.497 0 0 0 707,1727.5 v 4 c -0.01,0.676 1.01,0.676 1,0 v -4 a 0.5,0.5 0 0 0 -0.508,-0.508 z"
   transform="translate(-696,-1718.5)"
   id="path150" />
    </g>
</svg>
