<?xml version="1.0" encoding="UTF-8" standalone="no"?>
<svg
   viewBox="0 0 16 16"
   xml:space="preserve"
   version="1.1"
   id="svg5148"
   sodipodi:docname="rename_contents.svg"
   width="16"
   height="16"
   inkscape:version="1.2.1 (9c6d41e410, 2022-07-14)"
   xmlns:inkscape="http://www.inkscape.org/namespaces/inkscape"
   xmlns:sodipodi="http://sodipodi.sourceforge.net/DTD/sodipodi-0.dtd"
   xmlns="http://www.w3.org/2000/svg"
   xmlns:svg="http://www.w3.org/2000/svg"><defs
   id="defs5152" /><sodipodi:namedview
   id="namedview5150"
   pagecolor="#000000"
   bordercolor="#000000"
   borderopacity="0.25"
   inkscape:showpageshadow="2"
   inkscape:pageopacity="0"
   inkscape:pagecheckerboard="0"
   inkscape:deskcolor="#d1d1d1"
   showgrid="true"
   inkscape:zoom="21.925"
   inkscape:cx="10.444698"
   inkscape:cy="5.6556442"
   inkscape:window-width="1920"
   inkscape:window-height="1057"
   inkscape:window-x="-8"
   inkscape:window-y="-8"
   inkscape:window-maximized="1"
   inkscape:current-layer="svg5148"><inkscape:grid
     type="xygrid"
     id="grid5271" /></sodipodi:namedview>
    <g
   fill="#ffffff"
   id="g5146"
   transform="translate(-2,-2)">
        <path
   fill="#ffffff"
   d="m 157.48,492 c -0.15121,0.004 -0.29239,0.0766 -0.384,0.197 l -4.95,4.95 c -0.31419,0.31517 -0.091,0.85291 0.354,0.853 h 5 c 0.27614,0 0.5,-0.22386 0.5,-0.5 V 493 h 8 v 7.89396 L 166,507 h -13 v -8 h -1 v 8.5 c 0,0.27614 0.22386,0.5 0.5,0.5 h 14 c 0.27614,0 0.5,-0.22386 0.5,-0.5 V 500.5325 492.5 c 0,-0.27614 -0.22386,-0.5 -0.5,-0.5 z"
   transform="translate(-149,-490)"
   id="path5144"
   sodipodi:nodetypes="ccccsscccccccsssscssc" />
    </g><path
   d="m 9,5 v 1 h 1 v 7 H 9 v 1 H 10.428572 12 V 13 H 11 V 8.6433121 6 h 1 V 5 Z M 4,8 v 3 H 9 V 10 9 8 Z m 8,0 v 1 0 1 1 h 2 V 8 Z"
   id="path154"
   style="fill:#ffffff;fill-opacity:1;stroke-width:0.312893"
   sodipodi:nodetypes="cccccccccccccccccccccccccccccc" />
</svg>
