<?xml version="1.0" encoding="UTF-8" standalone="no"?>
<svg
   viewBox="0 0 16 16"
   xml:space="preserve"
   version="1.1"
   id="svg766"
   sodipodi:docname="renderparametercurves.svg"
   width="16"
   height="16"
   inkscape:version="1.2.1 (9c6d41e410, 2022-07-14)"
   xmlns:inkscape="http://www.inkscape.org/namespaces/inkscape"
   xmlns:sodipodi="http://sodipodi.sourceforge.net/DTD/sodipodi-0.dtd"
   xmlns="http://www.w3.org/2000/svg"
   xmlns:svg="http://www.w3.org/2000/svg"><defs
   id="defs770" /><sodipodi:namedview
   id="namedview768"
   pagecolor="#ffffff"
   bordercolor="#000000"
   borderopacity="0.25"
   inkscape:showpageshadow="2"
   inkscape:pageopacity="0.0"
   inkscape:pagecheckerboard="0"
   inkscape:deskcolor="#d1d1d1"
   showgrid="false"
   inkscape:zoom="43.85"
   inkscape:cx="9.9885975"
   inkscape:cy="9.9885975"
   inkscape:window-width="1920"
   inkscape:window-height="1057"
   inkscape:window-x="-8"
   inkscape:window-y="-8"
   inkscape:window-maximized="1"
   inkscape:current-layer="svg766" />
    <g
   fill="#ffffff"
   id="g764"
   transform="translate(-2,-2)">
        <path
   fill="#ffffff"
   d="m 74,477 c -0.71,0 -1.273,0.364 -1.621,0.822 -0.348,0.458 -0.547,0.995 -0.748,1.49 -0.202,0.496 -0.405,0.95 -0.65,1.24 C 70.735,480.844 70.491,481 70,481 h -1 v 1 h 1 c 0.758,0 1.36,-0.344 1.746,-0.803 0.387,-0.458 0.606,-1.005 0.81,-1.51 0.205,-0.504 0.398,-0.967 0.62,-1.26 C 73.398,478.136 73.586,478 74,478 c 0.377,0 0.584,0.165 0.838,0.557 0.254,0.391 0.47,0.989 0.69,1.615 0.218,0.626 0.438,1.281 0.794,1.828 0.356,0.547 0.934,1.006 1.682,1 0.673,-0.005 1.209,-0.264 1.57,-0.621 0.361,-0.357 0.571,-0.778 0.772,-1.147 0.2,-0.369 0.389,-0.685 0.623,-0.892 C 81.202,480.133 81.474,480 82,480 h 1 v -1 h -1 c -0.724,0 -1.296,0.239 -1.695,0.592 -0.4,0.353 -0.632,0.783 -0.838,1.162 -0.206,0.379 -0.387,0.707 -0.596,0.914 -0.209,0.207 -0.423,0.328 -0.875,0.332 -0.377,0.003 -0.58,-0.158 -0.834,-0.547 -0.253,-0.389 -0.47,-0.985 -0.69,-1.611 -0.218,-0.626 -0.439,-1.282 -0.794,-1.83 C 75.322,477.463 74.748,477 74,477 Z"
   transform="translate(-66,-470)"
   id="path760" />
        <path
   fill="#ffffff"
   d="m 82.5,473 -13,0.004 a 0.5,0.5 0 0 0 -0.5,0.5 V 480 h 1 v -5.996 L 82,474 v 4 h 1 v -4.5 A 0.5,0.5 0 0 0 82.5,473 Z m -0.5,8 v 5 H 70 v -3 h -1 v 3.5 a 0.5,0.5 0 0 0 0.5,0.5 h 13 A 0.5,0.5 0 0 0 83,486.5 V 481 Z"
   transform="translate(-66,-470)"
   id="path762" />
    </g>
</svg>
