<?xml version="1.0" encoding="UTF-8" standalone="no"?>
<!DOCTYPE svg PUBLIC "-//W3C//DTD SVG 1.1//EN" "http://www.w3.org/Graphics/SVG/1.1/DTD/svg11.dtd">
<svg width="100%" height="100%" viewBox="0 0 20 20" version="1.1" xmlns="http://www.w3.org/2000/svg" xmlns:xlink="http://www.w3.org/1999/xlink" xml:space="preserve" xmlns:serif="http://www.serif.com/" style="fill-rule:evenodd;clip-rule:evenodd;stroke-linejoin:round;stroke-miterlimit:2;">
    <g transform="matrix(1.28555,0,0,1.28555,-2.85551,-2.85551)">
        <g transform="matrix(1,0,0,1,-44.996,-575)">
            <path d="M48.5,578C48.226,578 48,578.226 48,578.5L47.992,589C47.992,590.517 49.212,592 50.977,592C52.742,592 53.992,590.525 53.992,589L54,578.5C54,578.226 53.774,578 53.5,578L48.5,578ZM51,588C51.546,588 52,588.454 52,589C52,589.546 51.546,590 51,590C50.454,590 50,589.546 50,589C50,588.454 50.454,588 51,588Z" style="fill:white;fill-rule:nonzero;"/>
        </g>
        <g transform="matrix(1,0,0,1,-43.996,-575)">
            <path d="M58.492,586C58.36,586 58.233,586.053 58.139,586.146L53.389,590.896C53.295,590.99 53.242,591.117 53.242,591.25L53.242,591.5C53.242,591.774 53.468,592 53.742,592L60.5,592C60.774,592 61,591.774 61,591.5L61,586.5C61,586.226 60.774,586 60.5,586L58.492,586Z" style="fill:white;fill-rule:nonzero;"/>
        </g>
        <g transform="matrix(1,0,0,1,-43.996,-575)">
            <path d="M56.486,579C56.356,579.002 56.231,579.054 56.139,579.146L54.139,581.146C54.045,581.24 53.992,581.367 53.992,581.5L53.992,587.5C53.992,587.5 53.992,587.501 53.992,587.501C53.992,587.775 54.218,588.001 54.492,588.001C54.625,588.001 54.752,587.948 54.846,587.854L59.846,582.854C59.94,582.76 59.993,582.633 59.993,582.5C59.993,582.367 59.94,582.24 59.846,582.146L56.846,579.146C56.751,579.051 56.621,578.998 56.486,579Z" style="fill:white;fill-rule:nonzero;"/>
        </g>
    </g>
</svg>
