<?xml version="1.0" encoding="UTF-8" standalone="no"?>
<svg
   viewBox="0 0 16 16"
   xml:space="preserve"
   version="1.1"
   id="svg484"
   sodipodi:docname="specdef.svg"
   width="16"
   height="16"
   inkscape:version="1.2.1 (9c6d41e410, 2022-07-14)"
   xmlns:inkscape="http://www.inkscape.org/namespaces/inkscape"
   xmlns:sodipodi="http://sodipodi.sourceforge.net/DTD/sodipodi-0.dtd"
   xmlns="http://www.w3.org/2000/svg"
   xmlns:svg="http://www.w3.org/2000/svg"><defs
   id="defs488" /><sodipodi:namedview
   id="namedview486"
   pagecolor="#ffffff"
   bordercolor="#000000"
   borderopacity="0.25"
   inkscape:showpageshadow="2"
   inkscape:pageopacity="0.0"
   inkscape:pagecheckerboard="0"
   inkscape:deskcolor="#d1d1d1"
   showgrid="false"
   inkscape:zoom="42.7"
   inkscape:cx="10"
   inkscape:cy="4.3793911"
   inkscape:window-width="1920"
   inkscape:window-height="1057"
   inkscape:window-x="-8"
   inkscape:window-y="-8"
   inkscape:window-maximized="1"
   inkscape:current-layer="svg484" />
    <path
   fill="#ffffff"
   d="M 2.5,1 C 1.678,1 1,1.678 1,2.5 1,3.323 1.678,4 2.5,4 3.147,4 3.698,3.579 3.906,3 H 5.094 C 5.302,3.579 5.854,4 6.5,4 7.322,4 8,3.323 8,2.5 8,1.678 7.322,1 6.5,1 5.854,1 5.303,1.422 5.094,2 H 3.906 C 3.697,1.422 3.146,1 2.5,1 Z m 11,0 C 12.854,1 12.303,1.422 12.094,2 H 11.5 A 0.5,0.5 0 0 0 11.146,2.146 L 7.293,6 H 3.906 C 3.697,5.422 3.146,5 2.5,5 1.678,5 1,5.678 1,6.5 1,7.323 1.678,8 2.5,8 3.147,8 3.698,7.579 3.906,7 H 7.5 A 0.5,0.5 0 0 0 7.854,6.854 L 11.707,3 h 0.387 C 12.302,3.579 12.854,4 13.5,4 14.323,4 15,3.323 15,2.5 15,1.678 14.323,1 13.5,1 Z m -11,1 a 0.49,0.49 0 0 1 0.494,0.469 0.5,0.5 0 0 0 0,0.062 A 0.49,0.49 0 0 1 2.5,3 0.493,0.493 0 0 1 2,2.5 C 2,2.218 2.218,2 2.5,2 Z m 4,0 C 6.782,2 7,2.218 7,2.5 7,2.782 6.782,3 6.5,3 A 0.49,0.49 0 0 1 6.006,2.531 0.5,0.5 0 0 0 6.006,2.469 0.49,0.49 0 0 1 6.5,2 Z m 7,0 C 13.782,2 14,2.218 14,2.5 14,2.782 13.782,3 13.5,3 a 0.49,0.49 0 0 1 -0.494,-0.469 0.5,0.5 0 0 0 0,-0.062 A 0.49,0.49 0 0 1 13.5,2 Z m 0,3 C 12.854,5 12.303,5.422 12.094,6 H 11.5 a 0.5,0.5 0 0 0 -0.354,0.146 l -5,5 A 0.5,0.5 0 0 0 6,11.5 v 0.594 C 5.421,12.302 5,12.854 5,13.5 5,14.323 5.678,15 6.5,15 7.322,15 8,14.323 8,13.5 8,12.853 7.579,12.302 7,12.094 V 11.707 L 11.707,7 h 0.387 C 12.302,7.579 12.854,8 13.5,8 14.323,8 15,7.323 15,6.5 15,5.678 14.323,5 13.5,5 Z M 2.5,6 C 2.782,6 3,6.218 3,6.5 3,6.782 2.782,7 2.5,7 A 0.493,0.493 0 0 1 2,6.5 C 2,6.218 2.218,6 2.5,6 Z m 11,0 C 13.782,6 14,6.218 14,6.5 14,6.782 13.782,7 13.5,7 a 0.49,0.49 0 0 1 -0.494,-0.469 0.5,0.5 0 0 0 0,-0.062 A 0.49,0.49 0 0 1 13.5,6 Z M 2.5,9 C 1.678,9 1,9.678 1,10.5 1,11.323 1.678,12 2.5,12 3.322,12 4,11.323 4,10.5 4,9.678 3.322,9 2.5,9 Z m 11,0 C 12.677,9 12,9.677 12,10.5 c 0,0.23 0.058,0.447 0.152,0.643 a 0.5,0.5 0 0 0 -0.006,0.004 l -1,1 A 0.5,0.5 0 0 0 11.142,12.153 1.47,1.47 0 0 0 10.5,12 C 9.678,12 9,12.678 9,13.5 9,14.323 9.677,15 10.5,15 11.323,15 12,14.323 12,13.5 12,13.27 11.942,13.055 11.848,12.86 a 0.5,0.5 0 0 0 0.006,-0.007 l 1,-1 a 0.5,0.5 0 0 0 0.004,-0.004 C 13.053,11.944 13.27,12 13.5,12 14.323,12 15,11.323 15,10.5 15,9.678 14.323,9 13.5,9 Z m -11,1 C 2.782,10 3,10.218 3,10.5 3,10.782 2.782,11 2.5,11 A 0.493,0.493 0 0 1 2,10.5 C 2,10.218 2.218,10 2.5,10 Z m 11,0 c 0.282,0 0.5,0.218 0.5,0.5 0,0.282 -0.218,0.5 -0.5,0.5 A 0.493,0.493 0 0 1 13,10.5 C 13,10.218 13.218,10 13.5,10 Z m -3,3 c 0.282,0 0.5,0.218 0.5,0.5 0,0.282 -0.218,0.5 -0.5,0.5 A 0.493,0.493 0 0 1 10,13.5 C 10,13.218 10.218,13 10.5,13 Z m -4.03,0.006 a 0.5,0.5 0 0 0 0.038,0 0.5,0.5 0 0 0 0.017,0 A 0.489,0.489 0 0 1 7,13.5 C 7,13.782 6.782,14 6.5,14 A 0.493,0.493 0 0 1 6,13.5 0.49,0.49 0 0 1 6.47,13.006 Z"
   id="path482" />
</svg>
