<?xml version="1.0" encoding="UTF-8" standalone="no"?>
<!DOCTYPE svg PUBLIC "-//W3C//DTD SVG 1.1//EN" "http://www.w3.org/Graphics/SVG/1.1/DTD/svg11.dtd">
<svg width="100%" height="100%" viewBox="0 0 20 20" version="1.1" xmlns="http://www.w3.org/2000/svg" xmlns:xlink="http://www.w3.org/1999/xlink" xml:space="preserve" xmlns:serif="http://www.serif.com/" style="fill-rule:evenodd;clip-rule:evenodd;stroke-linejoin:round;stroke-miterlimit:2;">
    <g transform="matrix(0.0213068,0,0,0.0213068,-0.909097,-0.909091)">
        <path d="M426.667,896L341.333,896C317.93,896.004 298.673,915.263 298.673,938.667C298.673,962.07 317.93,981.33 341.333,981.333L426.667,981.333C450.07,981.33 469.327,962.07 469.327,938.667C469.327,915.263 450.07,896.004 426.667,896ZM469.333,725.333L256,725.333C232.594,725.333 213.333,744.594 213.333,768C213.333,791.406 232.594,810.667 256,810.667L469.333,810.667C492.74,810.667 512,791.406 512,768C512,744.594 492.74,725.333 469.333,725.333ZM768,85.333C768,61.927 748.74,42.667 725.333,42.667L128,42.667C104.596,42.67 85.34,61.93 85.34,85.333C85.34,108.737 104.596,127.996 128,128L725.333,128C748.74,128 768,108.74 768,85.333ZM896,213.333L256,213.333C232.594,213.333 213.333,232.594 213.333,256C213.333,279.406 232.594,298.667 256,298.667L896,298.667C919.406,298.667 938.667,279.406 938.667,256C938.667,232.594 919.406,213.333 896,213.333ZM810.667,384L426.667,384C403.263,384.004 384.007,403.263 384.007,426.667C384.007,450.07 403.263,469.33 426.667,469.333L810.667,469.333C834.07,469.33 853.327,450.07 853.327,426.667C853.327,403.263 834.07,384.004 810.667,384ZM597.333,554.667L341.333,554.667C317.93,554.67 298.673,573.93 298.673,597.333C298.673,620.737 317.93,639.996 341.333,640L597.333,640C620.737,639.996 639.993,620.737 639.993,597.333C639.993,573.93 620.737,554.67 597.333,554.667Z" style="fill:white;fill-rule:nonzero;"/>
    </g>
</svg>
