<?xml version="1.0" encoding="UTF-8" standalone="no"?>
<!DOCTYPE svg PUBLIC "-//W3C//DTD SVG 1.1//EN" "http://www.w3.org/Graphics/SVG/1.1/DTD/svg11.dtd">
<svg width="100%" height="100%" viewBox="0 0 20 20" version="1.1" xmlns="http://www.w3.org/2000/svg" xmlns:xlink="http://www.w3.org/1999/xlink" xml:space="preserve" xmlns:serif="http://www.serif.com/" style="fill-rule:evenodd;clip-rule:evenodd;stroke-linejoin:round;stroke-miterlimit:2;">
    <g transform="matrix(1.2849,0,0,1.2849,-2.84898,-2.84883)">
        <g transform="matrix(1,0,0,1,-317.999,-343.997)">
            <path d="M329.975,350.98C329.826,350.988 329.688,351.059 329.595,351.175L325.983,355.691L322.891,352.158C322.792,352.035 322.643,351.963 322.485,351.963C322.199,351.963 321.965,352.197 321.965,352.483C321.965,352.616 322.016,352.744 322.108,352.841L325.608,356.841C325.707,356.955 325.85,357.02 326,357.02C326.159,357.02 326.308,356.948 326.407,356.824L330.018,352.31L333.108,355.841C333.207,355.964 333.356,356.036 333.514,356.036C333.8,356.036 334.034,355.802 334.034,355.516C334.034,355.383 333.983,355.255 333.891,355.158L330.391,351.158C330.287,351.038 330.133,350.973 329.975,350.98Z" style="fill:white;fill-rule:nonzero;"/>
        </g>
        <g transform="matrix(1,0,0,1,-317.999,-343.997)">
            <path d="M321.492,347.973C321.209,347.977 320.979,348.21 320.979,348.493C320.979,348.495 320.979,348.498 320.979,348.5L320.979,359.5C320.979,359.785 321.214,360.02 321.499,360.02C321.784,360.02 322.019,359.785 322.019,359.5L322.019,358L333.979,358L333.979,359.5C333.979,359.785 334.214,360.02 334.499,360.02C334.784,360.02 335.019,359.785 335.019,359.5L335.019,348.5C335.019,348.498 335.019,348.495 335.019,348.493C335.019,348.208 334.784,347.973 334.499,347.973C334.497,347.973 334.494,347.973 334.492,347.973C334.209,347.977 333.979,348.21 333.979,348.493C333.979,348.495 333.979,348.498 333.979,348.5L333.979,350L322.019,350L322.019,348.5C322.019,348.498 322.019,348.495 322.019,348.493C322.019,348.208 321.784,347.973 321.499,347.973C321.497,347.973 321.494,347.973 321.492,347.973ZM322.02,351L333.979,351L333.979,357L322.019,357L322.02,351Z" style="fill:white;fill-rule:nonzero;"/>
        </g>
    </g>
</svg>
