<?xml version="1.0" encoding="UTF-8" standalone="no"?>
<!DOCTYPE svg PUBLIC "-//W3C//DTD SVG 1.1//EN" "http://www.w3.org/Graphics/SVG/1.1/DTD/svg11.dtd">
<svg width="100%" height="100%" viewBox="0 0 20 20" version="1.1" xmlns="http://www.w3.org/2000/svg" xmlns:xlink="http://www.w3.org/1999/xlink" xml:space="preserve" xmlns:serif="http://www.serif.com/" style="fill-rule:evenodd;clip-rule:evenodd;stroke-linejoin:round;stroke-miterlimit:2;">
    <g transform="matrix(1.2499,0,0,1.2499,-2.49895,-2.499)">
        <path d="M6.003,5C4.786,5 3.761,5.347 3.056,6.053C2.35,6.758 2.003,7.783 2.003,9L2.003,12.42C1.98,12.565 2.021,12.712 2.116,12.824C2.121,12.831 2.126,12.837 2.132,12.844C2.138,12.85 2.144,12.855 2.15,12.861C2.151,12.862 2.153,12.862 2.154,12.863C2.165,12.874 2.176,12.885 2.187,12.895C2.188,12.896 2.19,12.896 2.191,12.897C2.302,12.986 2.445,13.023 2.585,13L2.753,13C2.755,13 2.757,13 2.758,13C3.033,13 3.258,12.774 3.258,12.5C3.258,12.319 3.16,12.152 3.003,12.064L3.003,9C3.003,7.968 3.281,7.242 3.763,6.76C4.245,6.278 4.97,6 6.003,6L10.296,6L13.15,8.854C13.244,8.947 13.371,9 13.503,9L15.003,9C15.643,9 16.126,9.205 16.463,9.541C16.799,9.877 17.003,10.361 17.003,11L17.003,12.5C17.003,12.774 17.229,13 17.503,13C17.777,13 18.003,12.774 18.003,12.5L18.003,11C18.003,10.139 17.708,9.373 17.169,8.834C16.631,8.295 15.864,8 15.003,8L13.71,8L10.857,5.146C10.763,5.052 10.636,5 10.503,5L6.003,5ZM5.503,12C4.681,12 4.003,12.677 4.003,13.5C4.003,14.323 4.681,15 5.503,15C6.326,15 7.003,14.323 7.003,13.5C7.003,12.677 6.326,12 5.503,12ZM8.503,12C8.229,12 8.003,12.226 8.003,12.5C8.003,12.774 8.229,13 8.503,13L11.503,13C11.777,13 12.003,12.774 12.003,12.5C12.003,12.226 11.777,12 11.503,12L8.503,12ZM14.503,12C13.681,12 13.003,12.677 13.003,13.5C13.003,14.323 13.681,15 14.503,15C15.326,15 16.003,14.323 16.003,13.5C16.003,12.677 15.326,12 14.503,12ZM5.503,13C5.785,13 6.003,13.218 6.003,13.5C6.003,13.782 5.785,14 5.503,14C5.501,14 5.498,14 5.496,14C5.225,14 5.003,13.778 5.003,13.507C5.003,13.505 5.003,13.502 5.003,13.5C5.003,13.218 5.221,13 5.503,13ZM14.503,13C14.785,13 15.003,13.218 15.003,13.5C15.003,13.782 14.785,14 14.503,14C14.501,14 14.498,14 14.496,14C14.225,14 14.003,13.778 14.003,13.507C14.003,13.505 14.003,13.502 14.003,13.5C14.003,13.218 14.221,13 14.503,13Z" style="fill:white;fill-rule:nonzero;"/>
    </g>
</svg>
