<?xml version="1.0" encoding="UTF-8" standalone="no"?>
<!DOCTYPE svg PUBLIC "-//W3C//DTD SVG 1.1//EN" "http://www.w3.org/Graphics/SVG/1.1/DTD/svg11.dtd">
<svg width="100%" height="100%" viewBox="0 0 20 20" version="1.1" xmlns="http://www.w3.org/2000/svg" xmlns:xlink="http://www.w3.org/1999/xlink" xml:space="preserve" xmlns:serif="http://www.serif.com/" style="fill-rule:evenodd;clip-rule:evenodd;stroke-linejoin:round;stroke-miterlimit:2;">
    <g transform="matrix(1.28571,0,0,1.28571,-2.85714,-2.85714)">
        <g transform="matrix(1.11111,0,0,1.11111,-27.7778,-383.333)">
            <path d="M27.5,347C27.226,347 27,347.226 27,347.5L27,351L28,351L28,348L31,348L31,347L27.5,347ZM37,347L37,348L40,348L40,351L41,351L41,347.5C41,347.226 40.774,347 40.5,347L37,347ZM27,357L27,360.5C27,360.774 27.226,361 27.5,361L31,361L31,360L28,360L28,357L27,357ZM40,357L40,360L37,360L37,361L40.5,361C40.774,361 41,360.774 41,360.5L41,357L40,357Z" style="fill:white;fill-rule:nonzero;"/>
        </g>
        <g>
            <g transform="matrix(-1,0,0,1,668,364)">
                <path d="M653.5,-359C653.226,-359 653,-358.774 653,-358.5L653,-349.5C653,-349.226 653.226,-349 653.5,-349L662.5,-349C662.774,-349 663,-349.226 663,-349.5L663,-358.5C663,-358.774 662.774,-359 662.5,-359L653.5,-359ZM654,-358L662,-358L662,-350L654,-350L654,-358Z" style="fill:white;fill-rule:nonzero;"/>
            </g>
            <g transform="matrix(-1,0,0,1,668,364)">
                <path d="M656,-357C655.454,-357 655,-356.546 655,-356C655,-355.454 655.454,-355 656,-355C656.546,-355 657,-355.454 657,-356C657,-356.546 656.546,-357 656,-357ZM659.504,-356C659.32,-356.001 659.149,-355.9 659.061,-355.738L656.061,-350.238C656.021,-350.165 656.001,-350.083 656.001,-350C656.001,-349.726 656.226,-349.5 656.5,-349.5L662.25,-349.5C662.524,-349.5 662.749,-349.726 662.749,-350C662.749,-350.077 662.732,-350.154 662.697,-350.223L659.947,-355.723C659.863,-355.891 659.692,-355.998 659.504,-356Z" style="fill:white;fill-rule:nonzero;"/>
            </g>
        </g>
    </g>
</svg>
