<?xml version="1.0" encoding="UTF-8" standalone="no"?>
<svg
   viewBox="0 0 16 16"
   xml:space="preserve"
   version="1.1"
   id="svg28"
   sodipodi:docname="voxelskirt.svg"
   width="16"
   height="16"
   inkscape:version="1.2.1 (9c6d41e410, 2022-07-14)"
   xmlns:inkscape="http://www.inkscape.org/namespaces/inkscape"
   xmlns:sodipodi="http://sodipodi.sourceforge.net/DTD/sodipodi-0.dtd"
   xmlns="http://www.w3.org/2000/svg"
   xmlns:svg="http://www.w3.org/2000/svg"><defs
   id="defs32" /><sodipodi:namedview
   id="namedview30"
   pagecolor="#000000"
   bordercolor="#000000"
   borderopacity="0.25"
   inkscape:showpageshadow="2"
   inkscape:pageopacity="0"
   inkscape:pagecheckerboard="0"
   inkscape:deskcolor="#d1d1d1"
   showgrid="false"
   inkscape:zoom="43.85"
   inkscape:cx="10.011403"
   inkscape:cy="8.1641961"
   inkscape:window-width="1920"
   inkscape:window-height="1057"
   inkscape:window-x="-8"
   inkscape:window-y="-8"
   inkscape:window-maximized="1"
   inkscape:current-layer="svg28" />
    <g
   fill="#ffffff"
   id="g26"
   transform="matrix(1.1416356,0,0,1.1416356,-3.4057087,-3.3963469)">
        <path
   fill="#ffffff"
   d="m 469.494,55.992 a 0.5,0.5 0 0 0 -0.492,0.508 v 7 a 0.5,0.5 0 1 0 1,0 v -7 a 0.5,0.5 0 0 0 -0.508,-0.508 z m 2,1 a 0.5,0.5 0 0 0 -0.492,0.508 v 7 a 0.5,0.5 0 1 0 1,0 v -7 a 0.5,0.5 0 0 0 -0.508,-0.508 z m 2,1 a 0.5,0.5 0 0 0 -0.492,0.508 v 7 a 0.5,0.5 0 1 0 1,0 v -7 a 0.5,0.5 0 0 0 -0.508,-0.508 z m 2,1 a 0.5,0.5 0 0 0 -0.492,0.508 v 7 a 0.5,0.5 0 1 0 1,0 v -7 a 0.5,0.5 0 0 0 -0.508,-0.508 z"
   transform="translate(-465.502,-50)"
   id="path18" />
        <path
   fill="#ffffff"
   d="m 471.496,54.992 a 0.5,0.5 0 0 0 -0.494,0.506 v 0.25 a 0.500004,0.500004 0 1 0 1,0.004 v -0.25 a 0.5,0.5 0 0 0 -0.506,-0.51 z m 2,1 a 0.5,0.5 0 0 0 -0.494,0.506 L 473,56.748 a 0.500004,0.500004 0 1 0 1,0.004 l 0.002,-0.25 a 0.5,0.5 0 0 0 -0.506,-0.51 z m 2,1 a 0.5,0.5 0 0 0 -0.494,0.506 L 475,57.748 a 0.500004,0.500004 0 1 0 1,0.004 l 0.002,-0.25 a 0.5,0.5 0 0 0 -0.506,-0.51 z m 1.998,1 a 0.5,0.5 0 0 0 -0.492,0.508 v 7 a 0.5,0.5 0 1 0 1,0 v -7 a 0.5,0.5 0 0 0 -0.508,-0.508 z"
   transform="translate(-465.502,-50)"
   id="path20" />
        <path
   fill="#ffffff"
   d="m 473.496,53.992 a 0.5,0.5 0 0 0 -0.494,0.506 v 0.25 a 0.500004,0.500004 0 1 0 1,0.004 v -0.25 a 0.5,0.5 0 0 0 -0.506,-0.51 z m 2,1 a 0.5,0.5 0 0 0 -0.494,0.506 L 475,55.748 a 0.500004,0.500004 0 1 0 1,0.004 l 0.002,-0.25 a 0.5,0.5 0 0 0 -0.506,-0.51 z m 2,1 a 0.5,0.5 0 0 0 -0.494,0.506 L 477,56.748 a 0.500004,0.500004 0 1 0 1,0.004 l 0.002,-0.25 a 0.5,0.5 0 0 0 -0.506,-0.51 z m 1.998,1 a 0.5,0.5 0 0 0 -0.492,0.508 v 7 a 0.5,0.5 0 1 0 1,0 v -7 a 0.5,0.5 0 0 0 -0.508,-0.508 z"
   transform="translate(-465.502,-50)"
   id="path22" />
        <path
   fill="#ffffff"
   d="m 475.496,52.992 a 0.5,0.5 0 0 0 -0.494,0.506 v 0.25 a 0.500004,0.500004 0 1 0 1,0.004 v -0.25 a 0.5,0.5 0 0 0 -0.506,-0.51 z m 2,1 a 0.5,0.5 0 0 0 -0.494,0.506 L 477,54.748 a 0.500004,0.500004 0 1 0 1,0.004 l 0.002,-0.25 a 0.5,0.5 0 0 0 -0.506,-0.51 z m 2,1 a 0.5,0.5 0 0 0 -0.494,0.506 L 479,55.748 a 0.500004,0.500004 0 1 0 1,0.004 l 0.002,-0.25 a 0.5,0.5 0 0 0 -0.506,-0.51 z m 1.998,1 a 0.5,0.5 0 0 0 -0.492,0.508 v 7 a 0.5,0.5 0 1 0 1,0 v -7 a 0.5,0.5 0 0 0 -0.508,-0.508 z"
   transform="translate(-465.502,-50)"
   id="path24" />
    </g>
</svg>
