<?xml version="1.0" encoding="UTF-8" standalone="no"?>
<!DOCTYPE svg PUBLIC "-//W3C//DTD SVG 1.1//EN" "http://www.w3.org/Graphics/SVG/1.1/DTD/svg11.dtd">
<svg width="100%" height="100%" viewBox="0 0 20 20" version="1.1" xmlns="http://www.w3.org/2000/svg" xmlns:xlink="http://www.w3.org/1999/xlink" xml:space="preserve" xmlns:serif="http://www.serif.com/" style="fill-rule:evenodd;clip-rule:evenodd;stroke-linejoin:round;stroke-miterlimit:2;">
    <g transform="matrix(1.28554,0,0,1.28554,-357.666,-499.071)">
        <path d="M285.492,388.992C285.221,388.996 285,389.221 285,389.492C285,389.495 285,389.497 285,389.5L285,392.154C284.247,392.349 283.567,392.761 283.045,393.338L280.854,391.146C280.76,391.048 280.63,390.993 280.494,390.993C280.22,390.993 279.994,391.219 279.994,391.493C279.994,391.629 280.049,391.759 280.147,391.853L282.467,394.173C282.166,394.735 282.006,395.362 282,396L279.5,396C278.833,396 278.833,397 279.5,397L282.14,397C282.336,397.756 282.751,398.438 283.332,398.96L281.146,401.146C280.675,401.618 281.382,402.326 281.854,401.854L284.17,399.537C284.72,399.823 285.332,400 285.992,400L286,400L286,402.5C286,403.167 287,403.167 287,402.5L287,399.854C287.754,399.656 288.433,399.241 288.953,398.66L291.147,400.854C291.618,401.359 292.361,400.617 291.854,400.146L289.529,397.822C289.825,397.263 289.982,396.641 289.987,396.008L289.987,396L292.5,396C293.167,396 293.167,395 292.5,395L289.84,395C289.643,394.249 289.231,393.573 288.654,393.053L290.854,390.853C290.948,390.759 291,390.632 291,390.499C291,390.225 290.774,389.999 290.5,389.999C290.367,389.999 290.24,390.052 290.146,390.146L287.816,392.476C287.257,392.178 286.634,392.02 286,392.014L286,389.5C286,389.497 286,389.495 286,389.492C286,389.218 285.774,388.992 285.5,388.992C285.497,388.992 285.495,388.992 285.492,388.992ZM285.986,393.014L285.999,393.014C287.638,393.014 288.986,394.362 288.986,396.001L288.986,396.014C288.986,397.652 287.638,399 286,399L285.984,399C284.347,399 283,397.653 283,396.016L283,396C283,394.362 284.348,393.014 285.986,393.014Z" style="fill:white;fill-rule:nonzero;"/>
    </g>
</svg>
