<svg width="16" height="16" viewBox="0 0 16 16" version="1.1" xmlns="http://www.w3.org/2000/svg" style="fill-rule:evenodd;clip-rule:evenodd;stroke-linejoin:round;stroke-miterlimit:2;"><path d="M13.04,1.333c-1.234,-0.001 -1.815,1.42 -2.88,1.8l-5.933,2.12c-0.135,0.046 -0.226,0.172 -0.227,0.314l-0,6.726c0.003,0.912 0.629,1.712 1.513,1.934l0.414,0.106c1.046,0.267 2.1,-0.373 2.366,-1.413c0.087,-0.343 0.471,-0.558 0.82,-0.42l1.574,0.627c0.767,0.493 1.325,1.54 2.353,1.54l0.627,-0c0.553,-0 1.333,-0.447 1.333,-1l0,-11.334c0,-0.553 -0.78,-1 -1.333,-1l-0.627,0Zm-5.687,10.534l-2.02,-0.734l0,1.154c0.001,0.46 0.667,0.685 0.667,0.685c0,0 0.871,0.152 1,-0.385c0.067,-0.274 0.193,-0.52 0.353,-0.734l0,0.014Z"/><path d="M1,6.667c0,-0.734 0.6,-1.334 1.333,-1.334c0,0 0.667,-0.073 0.667,0.334l0,4.666c0,0.397 -0.667,0.334 -0.667,0.334c-0.731,-0 -1.333,-0.602 -1.333,-1.334l-0,-2.666Z" style="fill-rule:nonzero;"/></svg>