<svg width="16" height="16" viewBox="0 0 24 24" version="1.1" xmlns="http://www.w3.org/2000/svg" style="fill-rule:evenodd;clip-rule:evenodd;stroke-linejoin:round;stroke-miterlimit:2;"><path d="M10.99,3.16c0.009,-0.053 0.013,-0.106 0.013,-0.16c-0,-0.553 -0.455,-1.008 -1.008,-1.008c-0.493,0 -0.917,0.362 -0.995,0.848l-0.85,5.16l-4.15,0c-0.549,0 -1,0.451 -1,1c-0,0.549 0.451,1 1,1l3.82,0l-0.67,4l-4.15,0c-0.549,0 -1,0.451 -1,1c-0,0.549 0.451,1 1,1l3.82,0l-0.8,4.84c-0.003,0.032 -0.005,0.064 -0.005,0.096c0,0.549 0.452,1 1,1c0.465,0 0.871,-0.323 0.975,-0.776l0.86,-5.16l4.97,0l-0.8,4.84c-0.003,0.032 -0.005,0.064 -0.005,0.096c0,0.549 0.452,1 1,1c0.465,0 0.871,-0.323 0.975,-0.776l0.86,-5.16l4.15,0c0.549,0 1,-0.451 1,-1c0,-0.549 -0.451,-1 -1,-1l-3.82,0l0.67,-4l4.15,0c0.549,0 1,-0.451 1,-1c0,-0.549 -0.451,-1 -1,-1l-3.82,0l0.8,-4.84c0.017,-0.073 0.025,-0.148 0.025,-0.224c0,-0.548 -0.451,-1 -1,-1c-0.512,0 -0.946,0.394 -0.995,0.904l-0.86,5.16l-4.97,0l0.8,-4.84l0.01,0Zm3.16,10.84l0.67,-4l-4.97,0l-0.67,4l4.97,0Z"/></svg>