<svg width="16" height="16" viewBox="0 0 32 32" version="1.1" xmlns="http://www.w3.org/2000/svg" style="fill-rule:evenodd;clip-rule:evenodd;stroke-linejoin:round;stroke-miterlimit:2;"><path d="M20,2.667c2.194,-0 4,1.805 4,4l0,16l-16.667,-0c-1.097,-0 -2,0.902 -2,2c0,1.097 0.903,2 2,2l18.667,-0c0.366,-0 0.667,-0.301 0.667,-0.667l-0,-19.333l1.333,-0c0.731,-0 1.333,0.602 1.333,1.333l0,20c0,0.731 -0.602,1.333 -1.333,1.333l-21.333,0c-2.195,0 -4,-1.805 -4,-4l-0,-18.666c-0,-2.195 1.805,-4 4,-4l13.333,-0Zm-0.4,7.6c0.173,-0.231 0.267,-0.512 0.267,-0.8c-0,-0.732 -0.602,-1.334 -1.334,-1.334c-0.288,0 -0.569,0.094 -0.8,0.267l-5.733,5.707l-3.067,-3.067c-0.24,-0.203 -0.545,-0.315 -0.86,-0.315c-0.732,0 -1.333,0.602 -1.333,1.334c-0,0.321 0.116,0.632 0.327,0.874l4,4c0.515,0.505 1.351,0.505 1.866,0l6.667,-6.666Z"/></svg>