<svg width="16" height="16" viewBox="0 0 24 24" version="1.1" xmlns="http://www.w3.org/2000/svg" style="fill-rule:evenodd;clip-rule:evenodd;stroke-linejoin:round;stroke-miterlimit:2;"><path d="M18.91,12.98c2.025,1.343 2.919,3.885 2.18,6.2c-0.1,0.33 -0.09,0.68 0.1,0.96l0.83,1.32c0.103,0.161 0.158,0.349 0.158,0.54c0,0.548 -0.45,0.999 -0.998,1l-5.5,0c-3.065,0.044 -5.626,-2.435 -5.68,-5.5c0.054,-3.065 2.615,-5.544 5.68,-5.5c1.2,0 2.32,0.36 3.23,0.98Z" style="fill-rule:nonzero;"/><path d="M19.24,10.86c0.32,0.16 0.72,-0.02 0.74,-0.38l0.02,-0.48c0,-4.42 -4.03,-8 -9,-8c-4.97,0 -9,3.58 -9,8c0,1.5 0.47,2.91 1.28,4.11c0.14,0.21 0.12,0.49 -0.06,0.67l-1.51,1.51c-0.189,0.188 -0.296,0.444 -0.296,0.71c0,0.543 0.443,0.992 0.986,1l5.1,0c0.271,-0.005 0.49,-0.229 0.49,-0.5c-0,-4.2 3.5,-7.5 7.68,-7.5c1.28,0 2.5,0.3 3.56,0.86l0.01,0Z" style="fill-rule:nonzero;"/></svg>