<?xml version="1.0" encoding="UTF-8" standalone="no"?><!DOCTYPE svg PUBLIC "-//W3C//DTD SVG 1.1//EN" "http://www.w3.org/Graphics/SVG/1.1/DTD/svg11.dtd"><svg width="100%" height="100%" viewBox="0 0 24 24" version="1.1" xmlns="http://www.w3.org/2000/svg" xmlns:xlink="http://www.w3.org/1999/xlink" xml:space="preserve" xmlns:serif="http://www.serif.com/" style="fill-rule:evenodd;clip-rule:evenodd;stroke-linejoin:round;stroke-miterlimit:2;"><g id="Layer3"><g><path d="M14.937,13.979l2,-6c0.009,-0.027 0.034,-0.045 0.063,-0.045l1,-0c0.037,-0 0.066,0.029 0.066,0.066l0,0.98l0.989,1.483c0.019,0.028 0.014,0.065 -0.011,0.087l-4,3.5c-0.023,0.02 -0.056,0.022 -0.081,0.005c-0.025,-0.016 -0.035,-0.048 -0.026,-0.076Zm0.063,0.021l4,-3.5l-1,-1.5l0,-1l-1,-0l-2,6Zm1.5,-2l1,-2.5l0.5,0.995l-1.5,1.505Zm0.182,-0.277l1.237,-1.241l-0.412,-0.82l-0.825,2.061Z" style="fill:#fff;"/><path d="M15,14l2,-6l1,-0l0,1l1,1.5l-4,3.5Zm1.5,-2l1.5,-1.505l-0.5,-0.995l-1,2.5Z" style="fill:#fff;fill-rule:nonzero;"/><path d="M12.956,14.05l-4,-3.5c-0.025,-0.022 -0.03,-0.059 -0.011,-0.087l0.989,-1.483l-0,-0.98c-0,-0.037 0.029,-0.066 0.066,-0.066l1,-0c0.029,-0 0.054,0.018 0.063,0.045l2,6c0.009,0.028 -0.001,0.06 -0.026,0.076c-0.025,0.017 -0.058,0.015 -0.081,-0.005Zm0.044,-0.05l-2,-6l-1,0l-0,1l-1,1.5l4,3.5Zm-1.5,-2l-1.5,-1.505l0.5,-0.995l1,2.5Zm-0.182,-0.277l-0.825,-2.061l-0.412,0.82l1.237,1.241Z" style="fill:#fff;"/><path d="M13,14l-2,-6l-1,0l0,1l-1,1.5l4,3.5Zm-1.5,-2l-1.5,-1.505l0.5,-0.995l1,2.5Z" style="fill:#fff;fill-rule:nonzero;"/><path d="M16.438,22.389c0.012,0.05 -7.441,0.891 -11.44,-1.664c0,-0 -0.017,-0.669 0.303,-1.061c0.32,-0.391 0.629,-0.612 1.263,-0.818c0.932,-0.302 1.699,-0.186 2.111,-0.096c0.415,0.091 0.9,-1.081 -0.623,-3.718l-3.054,-4.032l0.002,-2l3.052,-3.022l8.386,0l5.062,0.022l1.5,3l-0,2c-0,0 -1.018,0.706 -1.5,3c-0.474,2.258 -1.046,4.62 -3.5,7.372c-0.269,0.302 -1.563,1.013 -1.562,1.017Zm2.562,-15.389l-9,0l-3.005,1.991l0.005,2.009l3,5l3,0c0,0 0.285,-1 1,-1c0.715,0 1,1 1,1c-0,0 2.984,0.002 3,0c0.014,0 3,-5 3,-5l-0,-2l-2,-2Zm-8.491,13.313c-1.858,0.91 -3.723,1.34 0.741,1.851c1.685,0.193 4.307,-0.475 4.585,-0.664c0.673,-0.46 1.554,-1.133 2.165,-2c1.318,-1.87 2,-4.5 2,-4.5l-1.64,2l-3.36,0l-0,3l-1,-2.5l-1,2.5l-0,-2.982l-2.5,0c-0,0 0.075,0.235 0.259,1.045c0.294,1.292 0.363,1.95 -0.25,2.25Z" style="fill:#fff;"/></g></g><g id="Layer1"><path d="M12,0c1.556,0 3.195,0.32 4.669,0.944c4.808,2.032 7.793,7.094 7.269,12.282c-0.119,1.184 -0.419,2.348 -0.882,3.443c-0.601,1.422 -1.481,2.723 -2.572,3.815c-1.092,1.091 -2.393,1.971 -3.815,2.572c-1.474,0.624 -3.068,0.944 -4.669,0.944c-1.601,0 -3.195,-0.32 -4.669,-0.944c-1.422,-0.601 -2.723,-1.481 -3.815,-2.572c-1.091,-1.092 -1.971,-2.393 -2.572,-3.815c-0.463,-1.095 -0.763,-2.259 -0.882,-3.443c-0.524,-5.188 2.461,-10.25 7.269,-12.282c1.474,-0.624 3.113,-0.944 4.669,-0.944Zm8.524,5.519c-2.556,-2.292 -5.806,-2.226 -8.524,-1.276c-1.541,0.538 -3.034,1.34 -4.216,2.479c-0.618,0.595 -1.137,1.253 -1.579,1.988c-1.971,3.284 -2.713,8.123 0.052,11.206c0.839,0.935 1.909,1.489 3.102,1.853c2.964,0.907 6.155,0.483 8.731,-1.287c2.437,-1.675 3.925,-4.22 4.41,-6.699c0.565,-2.887 -0.206,-6.678 -1.976,-8.264Zm-4.442,-3.454c-3.213,-1.182 -6.911,-0.806 -9.721,1.193c-1.26,0.896 -2.314,2.096 -3.079,3.438c-0.511,0.898 -0.887,1.87 -1.112,2.878c-0.22,0.99 -0.292,2.012 -0.209,3.023c0.083,1.029 0.322,2.032 0.706,2.99c0.015,-0.311 0.03,-0.622 0.065,-0.932c0.088,-0.766 0.262,-1.644 0.476,-2.374c0.724,-2.471 2.014,-4.741 3.857,-6.546c1.643,-1.611 3.735,-2.666 5.949,-3.243c0.678,-0.177 1.493,-0.316 2.199,-0.382c0.289,-0.026 0.579,-0.036 0.869,-0.045Z" style="fill:#fff;"/></g></svg>