<?xml version="1.0" encoding="UTF-8" standalone="no"?><!DOCTYPE svg PUBLIC "-//W3C//DTD SVG 1.1//EN" "http://www.w3.org/Graphics/SVG/1.1/DTD/svg11.dtd"><svg width="100%" height="100%" viewBox="0 0 16 16" version="1.1" xmlns="http://www.w3.org/2000/svg" xmlns:xlink="http://www.w3.org/1999/xlink" xml:space="preserve" xmlns:serif="http://www.serif.com/" style="fill-rule:evenodd;clip-rule:evenodd;stroke-linejoin:round;stroke-miterlimit:2;"><g id="Layer3"><g><path d="M9.972,9.48l1.333,-4c0.006,-0.018 0.023,-0.03 0.042,-0.03l0.667,0c0.025,0 0.044,0.02 0.044,0.044l0,0.654l0.66,0.988c0.012,0.019 0.009,0.044 -0.008,0.058l-2.667,2.334c-0.015,0.013 -0.037,0.014 -0.053,0.003c-0.017,-0.011 -0.024,-0.032 -0.018,-0.051Zm0.042,0.014l2.667,-2.333l-0.667,-1l0,-0.667l-0.667,0l-1.333,4Z" style="fill:#fff;"/><path d="M10.014,9.494l1.333,-4l0.667,0l0,0.667l0.667,1l-2.667,2.333Z" style="fill:#fff;fill-rule:nonzero;"/><path d="M8.003,9.528l-2.667,-2.334c-0.017,-0.014 -0.02,-0.039 -0.008,-0.058l0.659,-0.988l0,-0.654c0,-0.024 0.02,-0.044 0.045,-0.044l0.666,0c0.019,0 0.036,0.012 0.042,0.03l1.334,4c0.006,0.019 -0.001,0.04 -0.018,0.051c-0.016,0.011 -0.038,0.01 -0.053,-0.003Zm0.029,-0.034l-1.334,-4l-0.666,0l-0,0.667l-0.667,1l2.667,2.333Z" style="fill:#fff;"/><path d="M8.032,9.494l-1.334,-4l-0.666,0l-0,0.667l-0.667,1l2.667,2.333Z" style="fill:#fff;fill-rule:nonzero;"/><path d="M10.959,14.926c0.007,0.034 -4.961,0.594 -7.627,-1.11c0,0 -0.011,-0.446 0.202,-0.706c0.214,-0.261 0.419,-0.409 0.842,-0.546c0.621,-0.202 0.867,0.05 1.124,-0.064c0.277,-0.123 1.015,-0.075 0,-1.833l-2.5,-2.667l0,-2l2,-2l5.959,-0.014l3.541,0.014l0.833,2l0,1.333c0,0 -0.012,1.138 -0.333,2.667c-0.316,1.505 -1.364,2.413 -3,4.248c-0.18,0.202 -1.042,0.675 -1.041,0.678Zm1.708,-10.259l-6.667,-0l-2.003,1.327l0.003,2.006l2.667,2.5l1.833,-0c0,-0 0.232,-0.5 0.709,-0.5c0.476,-0 0.791,0.512 0.791,0.512c-0,0 1.989,-0.01 2,-0.012c0.009,-0 2.5,-3.167 2.5,-3.167l-0,-1.333l-1.833,-1.333Zm-6.167,8.443c-0.436,0.271 -1.976,1.325 1,1.666c1.123,0.129 2.871,-0.316 3.056,-0.443c0.449,-0.306 1.037,-0.755 1.444,-1.333c0.879,-1.247 2,-3 2,-3l-1.5,1.5l-2.5,0.012l0,2l-0.791,-0.614l-0.709,0.602l0,-1.988l-1.5,0c-0,0 -0.061,-0.063 -0,0.488c0.069,0.621 -0.283,0.974 -0.5,1.11Z" style="fill:#fff;"/></g></g><g id="Layer1"><path d="M8,0c1.038,0 2.13,0.214 3.113,0.629c3.205,1.355 5.195,4.729 4.846,8.188c-0.08,0.789 -0.279,1.565 -0.588,2.296c-0.401,0.948 -0.988,1.815 -1.715,2.543c-0.728,0.727 -1.595,1.314 -2.543,1.715c-0.983,0.415 -2.046,0.629 -3.113,0.629c-1.067,0 -2.13,-0.214 -3.113,-0.629c-0.948,-0.401 -1.815,-0.988 -2.543,-1.715c-0.727,-0.728 -1.314,-1.595 -1.715,-2.543c-0.309,-0.731 -0.508,-1.507 -0.588,-2.296c-0.349,-3.459 1.641,-6.833 4.846,-8.188c0.983,-0.415 2.075,-0.629 3.113,-0.629Zm5.683,3.679c-1.705,-1.527 -3.871,-1.484 -5.683,-0.851c-1.027,0.36 -2.022,0.894 -2.811,1.653c-0.411,0.397 -0.758,0.835 -1.052,1.326c-1.315,2.189 -1.809,5.415 0.034,7.47c0.56,0.624 1.273,0.993 2.068,1.236c1.976,0.604 4.104,0.321 5.821,-0.859c1.006,-0.691 1.722,-1.509 2.332,-2.56c0.326,-0.561 0.528,-1.247 0.651,-1.877c0.376,-1.924 -0.18,-4.48 -1.36,-5.538Zm-2.962,-2.302c-2.142,-0.789 -4.607,-0.538 -6.48,0.795c-0.84,0.598 -1.543,1.397 -2.053,2.292c-0.34,0.598 -0.591,1.247 -0.741,1.918c-0.147,0.66 -0.195,1.342 -0.14,2.016c0.056,0.686 0.215,1.355 0.471,1.993c0.01,-0.207 0.02,-0.415 0.043,-0.621c0.059,-0.51 0.175,-1.096 0.318,-1.583c0.482,-1.647 1.343,-3.16 2.571,-4.364c1.095,-1.073 2.49,-1.777 3.966,-2.162c0.452,-0.118 0.995,-0.21 1.466,-0.254c0.193,-0.018 0.386,-0.024 0.579,-0.03Z" style="fill:#fff;"/></g></svg>