<?xml version="1.0" encoding="UTF-8" standalone="no"?><!DOCTYPE svg PUBLIC "-//W3C//DTD SVG 1.1//EN" "http://www.w3.org/Graphics/SVG/1.1/DTD/svg11.dtd"><svg width="100%" height="100%" viewBox="0 0 24 24" version="1.1" xmlns="http://www.w3.org/2000/svg" xmlns:xlink="http://www.w3.org/1999/xlink" xml:space="preserve" xmlns:serif="http://www.serif.com/" style="fill-rule:evenodd;clip-rule:evenodd;stroke-linecap:round;stroke-linejoin:bevel;stroke-miterlimit:2;"><g id="Layer3"><g><path d="M16,14l2,-7l1,0l-0.844,2l0.844,1.5l-3,3.5Zm1,-2l1.156,-1.5l-0.402,-0.5l-0.754,2Z" style="fill:none;fill-rule:nonzero;stroke:url(#_Linear1);stroke-width:0.35px;"/><path d="M16,14l2,-7l1,0l-0.844,2l0.844,1.5l-3,3.5Zm1,-2l1.156,-1.5l-0.402,-0.5l-0.754,2Z" style="fill:#fff;fill-rule:nonzero;"/><path d="M12.001,14l-2.001,-7l-1,0l0.844,2l-0.844,1.5l3.001,3.5Zm-1.001,-2l-1.156,-1.5l0.365,-0.5l0.791,2Z" style="fill:none;fill-rule:nonzero;stroke:url(#_Linear2);stroke-width:0.35px;"/><path d="M12.001,14l-2.001,-7l-1,0l0.844,2l-0.844,1.5l3.001,3.5Zm-1.001,-2l-1.156,-1.5l0.365,-0.5l0.791,2Z" style="fill:#fff;fill-rule:nonzero;"/><path d="M4.111,21c0.255,-0.698 5.069,-1.603 5.069,-1.603l-2.68,-5.897l-1.502,-2.5l0.002,-2l3.052,-3.022l11.948,0l3,3.022l0,2l-2,3l-2,6l-2,1.5l2.5,-6l-1.5,1.518l-3,-0.018l0.119,1l0,2l-0.119,0l-1,-2l-1,2l-0.119,0l-0,-2l0.119,-0.982l-3.5,-0.018l1.5,4l-6.889,0Zm14.889,-14l-10,0l-2.005,1.991l0.005,2.009l4,5l2,0c0,0 0.285,-1 1,-1c0.715,0 1,1 1,1c0,-0 1.984,0.002 2,0c0.014,0 4,-5 4,-5l0,-2l-2,-2Z" style="fill:#fff;"/></g></g><g id="Layer1"><path d="M12.001,0c6.623,0 11.999,5.377 11.999,12c0,6.623 -5.376,12 -11.999,12c-6.622,0 -11.998,-5.377 -11.998,-12c-0,-6.623 5.376,-12 11.998,-12Zm8.523,5.519c-2.556,-2.292 -5.806,-2.226 -8.524,-1.276c-1.541,0.538 -3.034,1.34 -4.216,2.479c-0.618,0.595 -1.137,1.253 -1.579,1.988c-1.971,3.284 -2.713,8.123 0.052,11.206c0.839,0.935 1.909,1.489 3.102,1.853c2.964,0.907 6.155,0.483 8.731,-1.287c2.437,-1.675 3.925,-4.22 4.41,-6.699c0.565,-2.887 -0.206,-6.678 -1.976,-8.264Zm-4.442,-3.454c-3.213,-1.182 -6.911,-0.806 -9.721,1.193c-1.26,0.896 -2.314,2.096 -3.079,3.438c-0.511,0.898 -0.887,1.87 -1.112,2.878c-0.22,0.99 -0.292,2.012 -0.209,3.023c0.083,1.029 0.322,2.032 0.706,2.99c0.015,-0.311 0.03,-0.622 0.065,-0.932c0.088,-0.766 0.262,-1.644 0.476,-2.374c0.724,-2.471 2.014,-4.741 3.857,-6.546c1.643,-1.611 3.735,-2.666 5.949,-3.243c0.678,-0.177 1.493,-0.316 2.199,-0.382c0.289,-0.026 0.579,-0.036 0.869,-0.045Z" style="fill:#fff;"/></g><defs><linearGradient id="_Linear1" x1="0" y1="0" x2="1" y2="0" gradientUnits="userSpaceOnUse" gradientTransform="matrix(-0.0115868,5.18634,13.993,0.0312618,9.01159,7.81366)"><stop offset="0" style="stop-color:#fff;stop-opacity:1"/><stop offset="0.58" style="stop-color:#fff;stop-opacity:0.66"/><stop offset="1" style="stop-color:#fff;stop-opacity:0.5"/></linearGradient><linearGradient id="_Linear2" x1="0" y1="0" x2="1" y2="0" gradientUnits="userSpaceOnUse" gradientTransform="matrix(-0.0115868,5.18634,13.993,0.0312618,9.01159,7.81366)"><stop offset="0" style="stop-color:#fff;stop-opacity:1"/><stop offset="0.58" style="stop-color:#fff;stop-opacity:0.66"/><stop offset="1" style="stop-color:#fff;stop-opacity:0.5"/></linearGradient></defs></svg>